<svg width="214" height="42" viewBox="0 0 214 42" fill="none" xmlns="http://www.w3.org/2000/svg">
<path d="M26.5391 13.1875C26.4714 13.4245 26.4544 13.5768 26.4883 13.6445C26.5221 13.7122 26.5391 13.7799 26.5391 13.8477C26.5052 14.0169 26.4714 14.1862 26.4375 14.3555C26.4375 14.4909 26.4036 14.6432 26.3359 14.8125C26.2344 15.3203 26.1159 15.8281 25.9805 16.3359C25.8451 16.8438 25.6419 17.3177 25.3711 17.7578C25.168 18.0286 25.0326 18.2318 24.9648 18.3672C24.8971 18.5026 24.8294 18.6211 24.7617 18.7227C24.2878 19.332 24.0169 19.806 23.9492 20.1445C23.7799 20.3138 23.5938 20.5 23.3906 20.7031C23.1875 20.8724 22.9505 21.0417 22.6797 21.2109C22.3411 21.4479 22.0365 21.668 21.7656 21.8711C21.5286 22.0404 21.224 22.0742 20.8516 21.9727C20.6823 22.1419 20.4961 22.2604 20.293 22.3281C20.0898 22.362 19.9036 22.4128 19.7344 22.4805C19.4635 22.6497 19.2435 22.7682 19.0742 22.8359C18.9388 22.8698 18.8034 22.9206 18.668 22.9883C18.4987 23.056 18.3633 23.1068 18.2617 23.1406C18.1602 23.1406 18.0755 23.1576 18.0078 23.1914C17.8385 23.3945 17.6693 23.4961 17.5 23.4961C17.1276 23.6654 16.806 23.8008 16.5352 23.9023C16.2643 24.0039 15.9935 24.0378 15.7227 24.0039C15.418 23.9701 15.2148 23.9701 15.1133 24.0039C15.0117 24.0378 14.9271 24.0716 14.8594 24.1055C14.3854 24.1393 14.0299 24.1901 13.793 24.2578C13.556 24.2917 13.319 24.2747 13.082 24.207C12.9466 24.2747 12.8112 24.3424 12.6758 24.4102C12.5404 24.444 12.388 24.4779 12.2188 24.5117C12.0495 24.5794 11.8971 24.5964 11.7617 24.5625C11.6263 24.5286 11.4401 24.5117 11.2031 24.5117C10.763 24.6133 10.4245 24.6641 10.1875 24.6641C9.95052 24.6302 9.7474 24.6133 9.57812 24.6133C9.20573 24.6133 8.76562 24.6302 8.25781 24.6641C7.78385 24.6979 7.39453 24.7995 7.08984 24.9688C7.1237 25.612 7.15755 26.2383 7.19141 26.8477C7.25911 27.457 7.27604 28.0664 7.24219 28.6758C7.24219 28.8451 7.22526 28.9974 7.19141 29.1328C7.15755 29.2344 7.14062 29.3529 7.14062 29.4883C7.14062 29.8945 7.15755 30.2839 7.19141 30.6562C7.22526 30.9948 7.24219 31.3333 7.24219 31.6719C7.24219 31.8411 7.22526 32.0273 7.19141 32.2305C7.15755 32.3997 7.14062 32.5859 7.14062 32.7891C7.14062 32.9583 7.15755 33.1276 7.19141 33.2969C7.25911 33.4661 7.24219 33.6354 7.14062 33.8047C7.34375 34.2448 7.41146 34.7188 7.34375 35.2266C7.27604 35.7344 7.25911 36.2253 7.29297 36.6992C7.32682 36.8685 7.36068 37.0039 7.39453 37.1055C7.42839 37.1732 7.44531 37.2578 7.44531 37.3594C7.51302 37.6302 7.51302 37.901 7.44531 38.1719C7.41146 38.4427 7.41146 38.7305 7.44531 39.0352C7.17448 39.1029 6.85286 39.2214 6.48047 39.3906C6.14193 39.526 5.78646 39.526 5.41406 39.3906C4.9401 39.3229 4.51693 39.3398 4.14453 39.4414C3.80599 39.543 3.46745 39.6276 3.12891 39.6953C2.62109 39.763 2.11328 39.7461 1.60547 39.6445C1.09766 39.5091 0.640625 39.3398 0.234375 39.1367C0.268229 38.9336 0.251302 38.7643 0.183594 38.6289C0.115885 38.4596 0.0820312 38.3073 0.0820312 38.1719C0.115885 38.0026 0.14974 37.8841 0.183594 37.8164C0.217448 37.7487 0.268229 37.6471 0.335938 37.5117C0.268229 37.4102 0.268229 37.3255 0.335938 37.2578C0.403646 37.1562 0.4375 37.0547 0.4375 36.9531C0.471354 36.7839 0.471354 36.6146 0.4375 36.4453C0.403646 36.2422 0.386719 36.056 0.386719 35.8867C0.386719 35.7513 0.403646 35.6159 0.4375 35.4805C0.505208 35.3451 0.539062 35.2096 0.539062 35.0742C0.539062 34.7695 0.505208 34.4648 0.4375 34.1602C0.369792 33.8555 0.335938 33.5508 0.335938 33.2461C0.369792 33.0768 0.403646 32.9076 0.4375 32.7383C0.471354 32.569 0.505208 32.3828 0.539062 32.1797C0.572917 32.112 0.572917 32.0273 0.539062 31.9258C0.505208 31.8242 0.505208 31.7227 0.539062 31.6211C0.640625 31.3503 0.674479 31.1641 0.640625 31.0625C0.640625 30.9609 0.640625 30.8763 0.640625 30.8086C0.640625 30.6393 0.640625 30.487 0.640625 30.3516C0.674479 30.1823 0.691406 29.9961 0.691406 29.793C0.657552 29.3529 0.674479 29.0482 0.742188 28.8789C0.84375 28.6758 0.894531 28.4896 0.894531 28.3203C0.894531 28.151 0.860677 27.9987 0.792969 27.8633C0.759115 27.7279 0.708333 27.5924 0.640625 27.457C0.606771 27.3555 0.572917 27.1862 0.539062 26.9492C0.505208 26.6784 0.488281 26.4583 0.488281 26.2891C0.488281 26.0859 0.522135 25.9167 0.589844 25.7812C0.657552 25.612 0.691406 25.4427 0.691406 25.2734C0.623698 25.0026 0.589844 24.8333 0.589844 24.7656C0.623698 24.6641 0.640625 24.5794 0.640625 24.5117C0.572917 24.3086 0.55599 24.1901 0.589844 24.1562C0.623698 24.0885 0.640625 24.0208 0.640625 23.9531C0.606771 23.6823 0.606771 23.4961 0.640625 23.3945C0.674479 23.2591 0.708333 23.1237 0.742188 22.9883C0.776042 22.8867 0.792969 22.7852 0.792969 22.6836C0.792969 22.5482 0.809896 22.4297 0.84375 22.3281C0.809896 22.125 0.809896 21.888 0.84375 21.6172C0.877604 21.3464 0.877604 21.1263 0.84375 20.957C0.84375 20.8893 0.826823 20.8047 0.792969 20.7031C0.759115 20.6016 0.72526 20.5 0.691406 20.3984C0.657552 20.2292 0.623698 19.9245 0.589844 19.4844C0.55599 19.0104 0.55599 18.6211 0.589844 18.3164C0.55599 17.9779 0.55599 17.7409 0.589844 17.6055C0.657552 17.4362 0.691406 17.2669 0.691406 17.0977C0.691406 16.9622 0.674479 16.8268 0.640625 16.6914C0.606771 16.5221 0.572917 16.3529 0.539062 16.1836C0.505208 15.9128 0.488281 15.6419 0.488281 15.3711C0.488281 15.1003 0.522135 14.8125 0.589844 14.5078C0.522135 14.1354 0.505208 13.8307 0.539062 13.5938C0.606771 13.3568 0.657552 13.1029 0.691406 12.832C0.72526 12.6628 0.708333 12.4427 0.640625 12.1719C0.572917 11.901 0.606771 11.681 0.742188 11.5117C0.572917 11.207 0.471354 10.8008 0.4375 10.293C0.403646 9.7513 0.4375 9.34505 0.539062 9.07422C0.403646 8.90495 0.335938 8.70182 0.335938 8.46484C0.335938 8.22786 0.335938 7.92318 0.335938 7.55078C0.335938 7.24609 0.31901 6.89062 0.285156 6.48438C0.285156 6.07812 0.369792 5.73958 0.539062 5.46875C0.369792 5.0625 0.251302 4.58854 0.183594 4.04688C0.14974 3.50521 0.217448 2.9974 0.386719 2.52344C0.691406 2.42188 1.02995 2.38802 1.40234 2.42188C1.80859 2.45573 2.2487 2.45573 2.72266 2.42188C3.36589 2.35417 3.99219 2.2526 4.60156 2.11719C5.21094 1.98177 5.85417 1.88021 6.53125 1.8125C6.86979 1.77865 7.19141 1.76172 7.49609 1.76172C7.83464 1.76172 8.17318 1.72786 8.51172 1.66016C8.95182 1.59245 9.35807 1.54167 9.73047 1.50781C10.1367 1.4401 10.6276 1.4401 11.2031 1.50781C11.474 1.50781 11.6263 1.54167 11.6602 1.60938C11.694 1.64323 11.7279 1.66016 11.7617 1.66016C11.8294 1.69401 11.9479 1.69401 12.1172 1.66016C12.2865 1.59245 12.4557 1.57552 12.625 1.60938C13.3021 1.67708 13.9453 1.77865 14.5547 1.91406C15.1979 2.04948 15.8073 2.23568 16.3828 2.47266C16.6198 2.57422 16.7891 2.64193 16.8906 2.67578C16.9922 2.67578 17.0768 2.69271 17.1445 2.72656C17.4492 2.79427 17.737 2.86198 18.0078 2.92969C18.2786 2.9974 18.4479 3.04818 18.5156 3.08203C19.0234 3.2513 19.3789 3.40365 19.582 3.53906C19.7852 3.67448 19.9883 3.8099 20.1914 3.94531C20.3945 4.08073 20.5469 4.18229 20.6484 4.25C20.7839 4.28385 20.9023 4.33464 21.0039 4.40234C21.1055 4.47005 21.207 4.55469 21.3086 4.65625C21.4102 4.75781 21.5117 4.84245 21.6133 4.91016C21.8503 5.07943 22.0703 5.2487 22.2734 5.41797C22.4766 5.55339 22.7135 5.70573 22.9844 5.875C23.0859 5.94271 23.1875 6.01042 23.2891 6.07812C23.4245 6.14583 23.526 6.21354 23.5938 6.28125C23.763 6.51823 23.8815 6.65365 23.9492 6.6875C24.0169 6.6875 24.0677 6.70443 24.1016 6.73828C24.237 6.8737 24.3893 7.0599 24.5586 7.29688C24.7617 7.5 24.8971 7.6862 24.9648 7.85547C25.1003 8.1263 25.1849 8.3125 25.2188 8.41406C25.2865 8.48177 25.3542 8.54948 25.4219 8.61719C25.5911 8.92188 25.6927 9.17578 25.7266 9.37891C25.7604 9.58203 25.8112 9.76823 25.8789 9.9375C25.9466 10.1068 25.9974 10.2591 26.0312 10.3945C26.099 10.5299 26.1497 10.6823 26.1836 10.8516C26.2513 11.0547 26.2852 11.2578 26.2852 11.4609C26.2852 11.6641 26.3021 11.8672 26.3359 12.0703C26.3698 12.2396 26.4036 12.4258 26.4375 12.6289C26.5052 12.7982 26.5391 12.9844 26.5391 13.1875ZM20.0898 12.9844C20.1237 12.5781 20.0729 12.2396 19.9375 11.9688C19.8021 11.6979 19.7344 11.4102 19.7344 11.1055C19.6328 10.9701 19.5312 10.8516 19.4297 10.75C19.3281 10.6146 19.2435 10.4961 19.1758 10.3945C19.0065 10.1237 18.8203 9.90365 18.6172 9.73438C18.4479 9.5651 18.2956 9.36198 18.1602 9.125C17.957 8.98958 17.8047 8.7526 17.7031 8.41406C17.4323 8.44792 17.2292 8.39714 17.0938 8.26172C16.9922 8.1263 16.806 8.09245 16.5352 8.16016C16.3659 7.99089 16.1797 7.85547 15.9766 7.75391C15.7734 7.65234 15.5872 7.55078 15.418 7.44922C15.0456 7.3138 14.724 7.26302 14.4531 7.29688C14.1823 7.29688 13.9453 7.27995 13.7422 7.24609H12.1172C11.8464 7.24609 11.6094 7.22917 11.4062 7.19531C11.2031 7.16146 10.9831 7.14453 10.7461 7.14453C10.5768 7.14453 10.4076 7.14453 10.2383 7.14453C10.069 7.14453 9.89974 7.16146 9.73047 7.19531C9.29036 7.26302 8.95182 7.29688 8.71484 7.29688C8.51172 7.29688 8.32552 7.29688 8.15625 7.29688C7.91927 7.46615 7.66536 7.58464 7.39453 7.65234C7.15755 7.72005 6.90365 7.78776 6.63281 7.85547C6.70052 8.70182 6.7513 9.63281 6.78516 10.6484C6.81901 11.6302 6.86979 12.5612 6.9375 13.4414C6.9375 13.6107 6.9375 13.763 6.9375 13.8984C6.9375 14.0339 6.97135 14.1693 7.03906 14.3047C7.07292 14.7448 7.05599 15.0664 6.98828 15.2695C6.92057 15.4388 6.90365 15.6081 6.9375 15.7773C6.97135 15.8789 7.00521 15.9805 7.03906 16.082C7.10677 16.1836 7.15755 16.3021 7.19141 16.4375C7.22526 16.5729 7.22526 16.7083 7.19141 16.8438C7.19141 16.9792 7.20833 17.1315 7.24219 17.3008C7.34375 17.5039 7.3776 17.6732 7.34375 17.8086C7.34375 17.9102 7.36068 17.9948 7.39453 18.0625C7.42839 18.1641 7.46224 18.2656 7.49609 18.3672C7.5638 18.4688 7.59766 18.5872 7.59766 18.7227C7.59766 19.0612 7.66536 19.349 7.80078 19.5859C8.20703 19.6198 8.57943 19.6029 8.91797 19.5352C9.29036 19.4674 9.57812 19.3997 9.78125 19.332C10.1536 19.2643 10.4076 19.1966 10.543 19.1289C10.6784 19.0612 10.7969 18.9935 10.8984 18.9258C11.1354 18.8581 11.3555 18.8242 11.5586 18.8242C11.7956 18.8242 12.0326 18.7904 12.2695 18.7227C12.6419 18.5534 12.9297 18.4518 13.1328 18.418C13.3698 18.3503 13.6068 18.3164 13.8438 18.3164C14.1146 18.2148 14.3685 18.1302 14.6055 18.0625C14.8424 17.9609 15.0794 17.8763 15.3164 17.8086C15.418 17.7747 15.5026 17.7578 15.5703 17.7578C15.6719 17.7578 15.7734 17.7409 15.875 17.707C16.112 17.6055 16.2812 17.5547 16.3828 17.5547C16.5182 17.5547 16.6198 17.5378 16.6875 17.5039C16.9583 17.4023 17.1615 17.2839 17.2969 17.1484C17.4661 17.013 17.6354 16.9622 17.8047 16.9961C17.974 16.7591 18.0755 16.5898 18.1094 16.4883C18.1432 16.3867 18.194 16.3021 18.2617 16.2344C18.3294 16.1667 18.431 16.1497 18.5664 16.1836C18.7018 16.1836 18.8034 16.1497 18.8711 16.082C18.9727 15.8112 19.0911 15.5742 19.2266 15.3711C19.362 15.168 19.4974 14.931 19.6328 14.6602C19.599 14.3555 19.6497 14.0677 19.7852 13.7969C19.9544 13.526 20.056 13.2552 20.0898 12.9844ZM57.8203 26.1367C57.7865 26.6107 57.7865 26.9323 57.8203 27.1016C57.8542 27.2708 57.8203 27.457 57.7188 27.6602C57.651 27.7956 57.5156 27.8971 57.3125 27.9648C57.1432 28.0326 57.0247 28.1341 56.957 28.2695C56.7539 28.2018 56.5339 28.1849 56.2969 28.2188C56.0599 28.2188 55.8568 28.2526 55.6875 28.3203C55.4505 28.1172 55.112 28.0326 54.6719 28.0664C54.2656 28.1003 53.9271 28.0156 53.6562 27.8125C53.4531 27.9141 53.2669 27.9648 53.0977 27.9648C52.6237 28.0326 52.1159 28.0156 51.5742 27.9141C51.0664 27.8125 50.5417 27.7279 50 27.6602C49.6276 27.6263 49.2383 27.6094 48.832 27.6094C48.4258 27.6094 48.0703 27.6094 47.7656 27.6094C47.4271 27.6771 47.1562 27.7109 46.9531 27.7109C46.6823 27.6771 46.4284 27.6094 46.1914 27.5078C45.9883 27.4062 45.7513 27.3555 45.4805 27.3555C45.2773 27.3216 45.0573 27.3385 44.8203 27.4062C44.6172 27.4401 44.4141 27.457 44.2109 27.457C44.0078 27.457 43.737 27.4232 43.3984 27.3555C43.1276 27.3893 42.9414 27.4062 42.8398 27.4062C42.7383 27.3724 42.6536 27.3555 42.5859 27.3555C42.349 27.3555 42.112 27.3724 41.875 27.4062C41.6719 27.4401 41.4857 27.3555 41.3164 27.1523C41.181 27.2539 41.0625 27.3216 40.9609 27.3555C40.8594 27.3893 40.6732 27.4062 40.4023 27.4062C40.2331 27.3724 40.0977 27.3555 39.9961 27.3555C39.9284 27.3216 39.8607 27.3047 39.793 27.3047C39.556 27.3724 39.3529 27.3893 39.1836 27.3555C39.0482 27.3216 38.9128 27.3724 38.7773 27.5078C38.7096 27.4401 38.5911 27.4232 38.4219 27.457C38.2526 27.457 38.1341 27.4232 38.0664 27.3555C37.6263 27.2878 37.2708 27.2878 37 27.3555C36.7292 27.4232 36.4414 27.457 36.1367 27.457C35.8659 27.457 35.5951 27.4232 35.3242 27.3555C35.0872 27.2878 34.7826 27.2878 34.4102 27.3555C34.2409 27.6602 34.1732 28.0495 34.207 28.5234C34.2747 28.9635 34.4102 29.319 34.6133 29.5898C34.6471 29.7591 34.6302 29.8945 34.5625 29.9961C34.5286 30.0977 34.5117 30.2331 34.5117 30.4023C34.7826 30.7747 35.0026 31.0456 35.1719 31.2148C35.375 31.3841 35.5273 31.5534 35.6289 31.7227C35.7982 31.9935 36.0013 32.2474 36.2383 32.4844C36.4753 32.7214 36.6953 32.9922 36.8984 33.2969C36.9661 33.4661 37.0508 33.6016 37.1523 33.7031C37.2878 33.8047 37.4062 33.9401 37.5078 34.1094C37.7786 34.1771 37.9987 34.2786 38.168 34.4141C38.3711 34.5495 38.6081 34.7018 38.8789 34.8711C39.2513 35.0742 39.5052 35.2604 39.6406 35.4297C39.8099 35.5651 40.013 35.6836 40.25 35.7852C40.4193 35.8529 40.5547 35.8867 40.6562 35.8867C40.7578 35.8529 40.8594 35.8529 40.9609 35.8867C41.1302 35.9544 41.3164 36.0729 41.5195 36.2422C41.7227 36.4115 41.9427 36.513 42.1797 36.5469C42.5521 36.513 42.8229 36.513 42.9922 36.5469C43.1615 36.5469 43.3138 36.5638 43.4492 36.5977C43.8893 36.6315 44.2956 36.5299 44.668 36.293C44.8372 36.293 44.9727 36.293 45.0742 36.293C45.1758 36.293 45.3112 36.276 45.4805 36.2422C45.7852 36.0391 46.0052 35.9375 46.1406 35.9375C46.3099 35.9375 46.4453 35.9036 46.5469 35.8359C46.6484 35.7344 46.7331 35.6836 46.8008 35.6836C46.9023 35.6497 46.987 35.6159 47.0547 35.582C47.2578 35.5143 47.4271 35.4297 47.5625 35.3281C47.7318 35.2266 47.901 35.1081 48.0703 34.9727C48.3073 34.8372 48.5273 34.6849 48.7305 34.5156C49.069 34.3125 49.3568 34.0247 49.5938 33.6523C49.8646 33.2799 50.1523 32.9583 50.457 32.6875C50.4909 32.2812 50.5586 31.9427 50.6602 31.6719C50.7617 31.401 50.8971 31.1471 51.0664 30.9102C51.0664 30.5378 51.1003 30.25 51.168 30.0469C51.2695 29.8099 51.388 29.5898 51.5234 29.3867C51.6927 29.3529 51.8451 29.319 51.9805 29.2852C52.1159 29.2513 52.2852 29.2682 52.4883 29.3359C52.5898 29.4036 52.6745 29.4714 52.7422 29.5391C52.8438 29.5729 52.9792 29.6237 53.1484 29.6914C53.25 29.7591 53.3516 29.8099 53.4531 29.8438C53.5885 29.8438 53.7747 29.8776 54.0117 29.9453C54.2487 30.0469 54.418 30.0977 54.5195 30.0977C54.6211 30.0977 54.7227 30.1146 54.8242 30.1484C55.0951 30.2839 55.332 30.3346 55.5352 30.3008C55.7721 30.2669 55.9753 30.2839 56.1445 30.3516C56.5169 30.6224 56.737 30.8255 56.8047 30.9609C56.8047 31.3672 56.6862 31.7396 56.4492 32.0781C56.2799 32.4505 56.1953 32.6875 56.1953 32.7891C56.2292 32.8568 56.2292 32.9753 56.1953 33.1445C56.1615 33.2461 56.1107 33.3307 56.043 33.3984C55.9753 33.4661 55.9245 33.5677 55.8906 33.7031C55.8229 33.9062 55.7721 34.1094 55.7383 34.3125C55.7044 34.4818 55.6367 34.668 55.5352 34.8711C55.2643 35.2096 55.0443 35.4635 54.875 35.6328C54.7396 35.7682 54.5872 35.8698 54.418 35.9375C54.4857 36.1068 54.4518 36.2422 54.3164 36.3438C54.181 36.4115 54.0794 36.4792 54.0117 36.5469C53.9102 36.7839 53.7578 36.9701 53.5547 37.1055C53.3854 37.2409 53.1823 37.3932 52.9453 37.5625C52.6745 37.7995 52.3867 38.0026 52.082 38.1719C51.8112 38.3411 51.5404 38.5104 51.2695 38.6797C50.8971 38.9844 50.6432 39.2044 50.5078 39.3398C50.3724 39.4414 50.2031 39.526 50 39.5938C49.8307 39.6615 49.6953 39.7292 49.5938 39.7969C49.526 39.8307 49.4753 39.8477 49.4414 39.8477C49.2721 39.9154 49.0859 39.9492 48.8828 39.9492C48.6797 39.9492 48.4766 39.9831 48.2734 40.0508C47.901 40.1862 47.5794 40.2708 47.3086 40.3047C47.0378 40.3724 46.7669 40.4401 46.4961 40.5078C46.3268 40.5755 46.1745 40.6263 46.0391 40.6602C45.9036 40.694 45.7005 40.694 45.4297 40.6602C45.0911 40.5924 44.8372 40.6094 44.668 40.7109C44.4987 40.8125 44.3294 40.7956 44.1602 40.6602C43.7878 40.7279 43.4661 40.7956 43.1953 40.8633C42.9583 40.931 42.7383 40.9479 42.5352 40.9141C42.4336 40.9141 42.332 40.8971 42.2305 40.8633C42.1289 40.8294 42.0273 40.7956 41.9258 40.7617C41.2826 40.6602 40.7578 40.5924 40.3516 40.5586C39.9792 40.5247 39.6406 40.457 39.3359 40.3555C39.2344 40.3216 39.1328 40.3047 39.0312 40.3047C38.9297 40.3047 38.8451 40.237 38.7773 40.1016C38.4388 40.1693 38.1172 40.1354 37.8125 40C37.5417 39.8307 37.3216 39.6615 37.1523 39.4922C37.0508 39.4922 36.9492 39.4753 36.8477 39.4414C36.7799 39.4076 36.6953 39.3737 36.5938 39.3398C36.3568 39.2383 36.1198 39.1367 35.8828 39.0352C35.6458 38.8997 35.4596 38.6966 35.3242 38.4258C35.0534 38.4258 34.8503 38.3581 34.7148 38.2227C34.6133 38.0872 34.4779 37.9518 34.3086 37.8164C34.0378 37.8164 33.7839 37.7487 33.5469 37.6133C33.3438 37.444 33.1745 37.2578 33.0391 37.0547C32.7682 36.7161 32.5143 36.4453 32.2773 36.2422C31.9049 35.8698 31.6172 35.5651 31.4141 35.3281C31.2109 35.0573 30.957 34.8711 30.6523 34.7695C30.5846 34.5664 30.4831 34.3971 30.3477 34.2617C30.2122 34.1263 30.0768 33.974 29.9414 33.8047C29.7721 33.4661 29.6536 33.2461 29.5859 33.1445C29.5182 33.043 29.4505 32.9583 29.3828 32.8906C29.3151 32.6198 29.2474 32.3659 29.1797 32.1289C29.1458 31.8581 29.0951 31.5872 29.0273 31.3164C28.9258 30.944 28.875 30.6732 28.875 30.5039C28.875 30.3346 28.8581 30.1654 28.8242 29.9961C28.7904 29.8945 28.7396 29.793 28.6719 29.6914C28.638 29.5898 28.6042 29.4883 28.5703 29.3867C28.5365 29.2174 28.5195 29.0482 28.5195 28.8789C28.5534 28.7096 28.5534 28.5234 28.5195 28.3203C28.4857 28.151 28.4518 27.9987 28.418 27.8633C28.3841 27.694 28.3672 27.5247 28.3672 27.3555C28.3672 27.1185 28.3841 26.8815 28.418 26.6445C28.4518 26.3737 28.4688 26.1029 28.4688 25.832C28.4688 25.7643 28.4518 25.6797 28.418 25.5781C28.418 25.4427 28.418 25.3411 28.418 25.2734C28.4518 25.1042 28.5026 24.9349 28.5703 24.7656C28.6719 24.5625 28.7396 24.3763 28.7734 24.207C28.7057 23.9023 28.6888 23.6823 28.7227 23.5469C28.7904 23.4115 28.7904 23.3099 28.7227 23.2422C28.7904 23.1745 28.8411 23.0898 28.875 22.9883C28.9089 22.8529 28.9427 22.7513 28.9766 22.6836C29.0104 22.582 29.0273 22.4635 29.0273 22.3281C29.0273 22.1927 29.0612 22.0404 29.1289 21.8711C29.2982 21.6003 29.3997 21.4479 29.4336 21.4141C29.5013 21.3464 29.5521 21.2956 29.5859 21.2617C29.6198 21.0247 29.6536 20.8724 29.6875 20.8047C29.7214 20.7031 29.7721 20.6185 29.8398 20.5508C30.0091 20.2122 30.1107 20.0091 30.1445 19.9414C30.2122 19.8737 30.263 19.806 30.2969 19.7383C30.3307 19.4674 30.3646 19.3151 30.3984 19.2812C30.4323 19.2474 30.4661 19.1966 30.5 19.1289C30.5677 18.9258 30.6016 18.7565 30.6016 18.6211C30.6354 18.4518 30.6862 18.2826 30.7539 18.1133C30.8216 17.944 30.9062 17.7747 31.0078 17.6055C31.1094 17.4023 31.2448 17.2331 31.4141 17.0977C31.5833 16.6914 31.7357 16.3529 31.8711 16.082C32.0065 15.7773 32.1419 15.4896 32.2773 15.2188C32.582 14.9818 32.8359 14.7109 33.0391 14.4062C33.276 14.1016 33.5469 13.8307 33.8516 13.5938C33.9193 13.526 33.987 13.4922 34.0547 13.4922C34.1562 13.4583 34.2747 13.4076 34.4102 13.3398C34.7826 13.069 35.0534 12.8659 35.2227 12.7305C35.3919 12.5612 35.5951 12.4258 35.832 12.3242C36.0352 12.2565 36.3398 12.2227 36.7461 12.2227C37.1862 12.1888 37.4909 12.0534 37.6602 11.8164C37.8633 11.8164 38.0664 11.7826 38.2695 11.7148C38.4727 11.6133 38.6758 11.5117 38.8789 11.4102C39.0143 11.3424 39.1667 11.2747 39.3359 11.207C39.5052 11.1055 39.7422 11.0716 40.0469 11.1055C40.2839 11.1393 40.5039 11.1562 40.707 11.1562C40.944 11.1224 41.1979 11.0716 41.4688 11.0039C41.6042 10.9701 41.7565 10.9362 41.9258 10.9023C42.0951 10.8685 42.2812 10.8516 42.4844 10.8516C42.9922 10.9193 43.3815 10.9531 43.6523 10.9531C43.957 10.9531 44.2956 10.9701 44.668 11.0039C44.8372 11.0039 45.0065 10.987 45.1758 10.9531C45.3789 10.8854 45.582 10.8516 45.7852 10.8516C45.9544 10.8854 46.1068 10.9023 46.2422 10.9023C46.4115 10.9023 46.5807 10.9193 46.75 10.9531C46.987 11.0208 47.1224 11.0547 47.1562 11.0547C47.224 11.0547 47.2747 11.0547 47.3086 11.0547C47.4779 11.0885 47.6133 11.1562 47.7148 11.2578C47.8503 11.3255 48.0026 11.3932 48.1719 11.4609C48.2396 11.5286 48.3242 11.5625 48.4258 11.5625C48.5612 11.5625 48.6628 11.5964 48.7305 11.6641C48.8659 11.6979 49.069 11.7826 49.3398 11.918C49.5768 11.9857 49.7969 12.0534 50 12.1211C50.2031 12.1888 50.3385 12.3411 50.4062 12.5781C50.7786 12.6797 51.0495 12.8151 51.2188 12.9844C51.4219 13.1536 51.6081 13.2891 51.7773 13.3906C51.9128 13.4922 52.0482 13.6445 52.1836 13.8477C52.319 14.0169 52.4714 14.1523 52.6406 14.2539C52.6745 14.3555 52.7083 14.4401 52.7422 14.5078C52.8099 14.5755 52.8607 14.6771 52.8945 14.8125C53.1654 14.9818 53.4023 15.2018 53.6055 15.4727C53.8086 15.7096 54.0964 15.8958 54.4688 16.0312C54.5703 16.2682 54.6888 16.4714 54.8242 16.6406C54.9596 16.8099 55.0443 17.0469 55.0781 17.3516C55.1458 17.4531 55.2135 17.5716 55.2812 17.707C55.3828 17.8086 55.4844 17.944 55.5859 18.1133C55.6198 18.181 55.6706 18.2656 55.7383 18.3672C55.8398 18.4688 55.9076 18.5703 55.9414 18.6719C56.1107 19.0443 56.2969 19.3997 56.5 19.7383C56.5677 19.8398 56.6523 19.9583 56.7539 20.0938C56.8893 20.2292 56.9909 20.3815 57.0586 20.5508C57.0924 20.6862 57.1094 20.8216 57.1094 20.957C57.1094 21.0924 57.1263 21.2279 57.1602 21.3633C57.2279 21.5326 57.2786 21.6849 57.3125 21.8203C57.3464 21.9219 57.3802 22.0065 57.4141 22.0742C57.4818 22.3451 57.4987 22.6159 57.4648 22.8867C57.431 23.1237 57.431 23.3776 57.4648 23.6484C57.4987 23.8516 57.5156 24.0716 57.5156 24.3086C57.5495 24.5117 57.5833 24.7148 57.6172 24.918C57.6172 25.1888 57.6341 25.4089 57.668 25.5781L57.8203 26.1367ZM50.5586 22.0742C50.6263 22.0065 50.6263 21.888 50.5586 21.7188C50.5247 21.5495 50.4401 21.431 50.3047 21.3633C50.237 21.1263 50.1354 20.9909 50 20.957C49.8984 20.8893 49.8984 20.7878 50 20.6523C49.8984 20.5508 49.763 20.4661 49.5938 20.3984C49.4245 20.3307 49.3568 20.1953 49.3906 19.9922C49.2214 20.026 49.1029 19.9922 49.0352 19.8906C49.0013 19.7552 48.9505 19.6706 48.8828 19.6367C48.6458 19.4674 48.4935 19.2982 48.4258 19.1289C48.3581 18.9596 48.2565 18.8242 48.1211 18.7227C48.0195 18.6549 47.901 18.6549 47.7656 18.7227C47.6641 18.7565 47.6133 18.6719 47.6133 18.4688C47.0716 18.5026 46.6484 18.418 46.3438 18.2148C46.0729 17.9779 45.8021 17.724 45.5312 17.4531C45.2266 17.5208 44.888 17.5378 44.5156 17.5039C44.1432 17.4701 43.7878 17.4701 43.4492 17.5039C43.1784 17.3346 42.9245 17.2669 42.6875 17.3008C42.4844 17.3008 42.2305 17.25 41.9258 17.1484C41.7904 17.1146 41.7057 17.0469 41.6719 16.9453C41.6719 16.8099 41.5872 16.7422 41.418 16.7422C41.181 16.8438 40.944 16.8438 40.707 16.7422C40.5039 16.6406 40.2669 16.5729 39.9961 16.5391C39.7253 16.7083 39.4375 16.8268 39.1328 16.8945C38.8281 16.9284 38.5234 16.9961 38.2188 17.0977C38.0495 17.1654 37.8633 17.3346 37.6602 17.6055C37.457 17.8424 37.3047 18.0117 37.2031 18.1133C36.9661 18.3841 36.7292 18.6549 36.4922 18.9258C36.2552 19.1966 36.0352 19.4674 35.832 19.7383C35.8659 19.9414 35.849 20.1107 35.7812 20.2461C35.7135 20.3477 35.6966 20.4831 35.7305 20.6523C35.4935 20.8216 35.3242 21.0924 35.2227 21.4648C35.1549 21.8034 35.0872 22.1419 35.0195 22.4805C35.2565 22.5143 35.5273 22.5143 35.832 22.4805C36.1367 22.4466 36.4583 22.4128 36.7969 22.3789C36.8984 22.3451 37 22.3281 37.1016 22.3281C37.237 22.3281 37.3555 22.3281 37.457 22.3281C37.9648 22.2266 38.4049 22.1927 38.7773 22.2266C39.1497 22.2266 39.4883 22.2096 39.793 22.1758C40.1315 22.1758 40.4531 22.1589 40.7578 22.125C41.0964 22.0573 41.401 22.0911 41.6719 22.2266C42.0443 22.0573 42.4674 21.9896 42.9414 22.0234C43.4492 22.0573 43.8555 22.0911 44.1602 22.125C44.431 22.125 44.5833 22.1081 44.6172 22.0742C44.651 22.0404 44.6849 22.0404 44.7188 22.0742C45.7005 22.0065 46.6654 22.0404 47.6133 22.1758C48.5951 22.2773 49.5768 22.2435 50.5586 22.0742ZM77.3203 14.6602C77.2865 14.9987 77.2865 15.2357 77.3203 15.3711C77.3542 15.5065 77.3542 15.6081 77.3203 15.6758C77.2526 15.9128 77.1341 16.082 76.9648 16.1836C76.7956 16.2513 76.6432 16.3529 76.5078 16.4883C76.1693 16.319 75.8646 16.2852 75.5938 16.3867C75.3229 16.4883 75.0521 16.5729 74.7812 16.6406C74.7135 16.6406 74.5951 16.6576 74.4258 16.6914C74.2904 16.6914 74.1888 16.6914 74.1211 16.6914C73.8503 16.6914 73.5964 16.7422 73.3594 16.8438C73.1224 16.9453 72.9023 17.013 72.6992 17.0469C72.5299 17.0807 72.3776 17.0807 72.2422 17.0469C72.1068 17.013 71.9544 17.0469 71.7852 17.1484C71.6497 17.4531 71.599 17.7917 71.6328 18.1641C71.7005 18.5026 71.7005 18.8581 71.6328 19.2305C71.5651 19.7721 71.5482 20.2122 71.582 20.5508C71.6497 20.8555 71.6836 21.1432 71.6836 21.4141C71.6836 21.7188 71.6667 22.0065 71.6328 22.2773C71.6328 22.5482 71.7005 22.8021 71.8359 23.0391C71.7344 23.2422 71.6667 23.4961 71.6328 23.8008C71.6328 24.0716 71.6328 24.3424 71.6328 24.6133C71.5651 25.0872 71.5651 25.6289 71.6328 26.2383C71.7005 26.8477 71.7344 27.3893 71.7344 27.8633C71.7005 28.1003 71.6667 28.3203 71.6328 28.5234C71.6328 28.6927 71.6159 28.8789 71.582 29.082C71.5143 29.3529 71.4974 29.5221 71.5312 29.5898C71.5651 29.6576 71.582 29.7253 71.582 29.793C71.5482 30.1315 71.5312 30.5208 71.5312 30.9609C71.5651 31.401 71.5651 31.8581 71.5312 32.332C71.5312 32.6367 71.5143 32.8568 71.4805 32.9922C71.4466 33.1276 71.4297 33.2461 71.4297 33.3477C71.4635 33.6185 71.4974 33.9062 71.5312 34.2109C71.599 34.5156 71.5143 34.8203 71.2773 35.125C71.2773 35.2266 71.2943 35.3281 71.3281 35.4297C71.3958 35.4974 71.4466 35.582 71.4805 35.6836C71.4128 35.9544 71.3958 36.1576 71.4297 36.293C71.4974 36.4284 71.5312 36.5299 71.5312 36.5977C71.4635 36.9701 71.4466 37.2917 71.4805 37.5625C71.5143 37.7995 71.5482 38.0365 71.582 38.2734C71.582 39.3229 71.362 40.0169 70.9219 40.3555C70.4818 40.2878 70.0417 40.2201 69.6016 40.1523C69.1953 40.0846 68.7721 40.0846 68.332 40.1523C68.1289 40.1862 67.9258 40.2201 67.7227 40.2539C67.5195 40.3216 67.2826 40.3047 67.0117 40.2031C66.8424 40.237 66.724 40.2708 66.6562 40.3047C66.5885 40.3724 66.487 40.4062 66.3516 40.4062C66.2161 40.4401 66.0977 40.4062 65.9961 40.3047C65.8945 40.2031 65.776 40.1354 65.6406 40.1016C65.5729 39.6953 65.556 39.1875 65.5898 38.5781C65.6576 37.9688 65.6745 37.3255 65.6406 36.6484C65.6406 36.4792 65.6237 36.3438 65.5898 36.2422C65.556 36.1068 65.5221 35.9544 65.4883 35.7852C65.4544 35.5482 65.4375 35.3112 65.4375 35.0742C65.4714 34.8034 65.4714 34.5326 65.4375 34.2617C65.4375 34.1602 65.4544 34.0586 65.4883 33.957C65.5221 33.8216 65.5391 33.7031 65.5391 33.6016C65.5391 33.4661 65.5052 33.3984 65.4375 33.3984C65.4036 33.3646 65.3867 33.2461 65.3867 33.043C65.3867 32.6029 65.4206 32.1966 65.4883 31.8242C65.5898 31.4518 65.6745 31.0794 65.7422 30.707C65.6745 30.3008 65.6406 30.013 65.6406 29.8438C65.6406 29.6406 65.6406 29.4714 65.6406 29.3359C65.6068 29.2005 65.556 29.0482 65.4883 28.8789C65.4206 28.7096 65.3867 28.5404 65.3867 28.3711C65.3867 28.2357 65.3867 28.1341 65.3867 28.0664C65.4206 27.9987 65.4036 27.8802 65.3359 27.7109C65.3021 27.1354 65.3021 26.6276 65.3359 26.1875C65.4036 25.7135 65.4206 25.2565 65.3867 24.8164C65.2852 24.444 65.2344 24.1562 65.2344 23.9531C65.2344 23.7161 65.2174 23.513 65.1836 23.3438C65.1497 23.1068 65.1159 22.8529 65.082 22.582C65.082 22.3112 65.099 22.0234 65.1328 21.7188C65.1328 21.5833 65.1497 21.4648 65.1836 21.3633C65.2174 21.2617 65.2344 21.1432 65.2344 21.0078C65.2344 20.8385 65.2005 20.6862 65.1328 20.5508C65.099 20.4154 65.082 20.263 65.082 20.0938C65.082 19.8229 65.099 19.5352 65.1328 19.2305C65.2005 18.9258 65.2344 18.638 65.2344 18.3672C65.2005 18.2656 65.1667 18.1641 65.1328 18.0625C65.099 17.9271 65.082 17.8086 65.082 17.707C65.0482 17.3685 65.0651 17.0469 65.1328 16.7422C65.2344 16.4375 65.2513 16.1328 65.1836 15.8281C64.5065 15.9635 63.9648 16.099 63.5586 16.2344C63.4232 16.2682 63.2878 16.3021 63.1523 16.3359C63.0508 16.3359 62.9154 16.3698 62.7461 16.4375C62.4753 16.5052 62.2552 16.5729 62.0859 16.6406C61.9167 16.7083 61.7305 16.6576 61.5273 16.4883C61.2227 16.2174 61.0365 15.9974 60.9688 15.8281C60.9349 15.5573 60.9688 15.3372 61.0703 15.168C61.2057 14.9987 61.3581 14.8294 61.5273 14.6602C61.4596 14.5247 61.4596 14.4232 61.5273 14.3555C61.5951 14.2878 61.6458 14.1693 61.6797 14C61.7135 13.8307 61.7135 13.6615 61.6797 13.4922C61.6797 13.2891 61.7135 13.0859 61.7812 12.8828C61.849 12.6797 61.9336 12.4935 62.0352 12.3242C62.1367 12.1549 62.2044 11.9857 62.2383 11.8164C62.2721 11.5794 62.2552 11.3424 62.1875 11.1055C62.1198 10.8685 62.1198 10.6315 62.1875 10.3945C62.2891 9.81901 62.7122 9.59896 63.457 9.73438C63.6602 9.80208 63.8464 9.85286 64.0156 9.88672C64.1849 9.92057 64.3034 10.0221 64.3711 10.1914C64.6758 10.1576 64.8958 10.1914 65.0312 10.293C65.2005 10.3945 65.4206 10.4453 65.6914 10.4453C65.9284 10.1406 66.0299 9.73438 65.9961 9.22656C65.9622 8.71875 65.9622 8.17708 65.9961 7.60156C66.0638 7.29688 66.0807 7.07682 66.0469 6.94141C66.013 6.80599 65.9792 6.67057 65.9453 6.53516C65.8776 6.02734 65.8945 5.55339 65.9961 5.11328C66.0299 5.01172 66.0638 4.91016 66.0977 4.80859C66.1315 4.67318 66.1484 4.55469 66.1484 4.45312C66.1484 4.18229 66.0977 3.94531 65.9961 3.74219C65.9961 3.53906 65.9622 3.38672 65.8945 3.28516C65.8607 3.18359 65.8099 3.09896 65.7422 3.03125C65.7083 2.96354 65.6745 2.91276 65.6406 2.87891C65.6068 2.8112 65.6068 2.70964 65.6406 2.57422C65.8776 2.33724 66.0469 2.23568 66.1484 2.26953C66.25 2.26953 66.3854 2.26953 66.5547 2.26953C66.8255 2.20182 67.0456 2.15104 67.2148 2.11719C67.418 2.08333 67.6719 2.10026 67.9766 2.16797C68.2812 2.10026 68.5182 2.10026 68.6875 2.16797C68.8568 2.20182 69.043 2.23568 69.2461 2.26953C69.3815 2.23568 69.5 2.1849 69.6016 2.11719C69.7031 2.04948 69.8047 1.9987 69.9062 1.96484C70.0078 2.03255 70.1432 2.04948 70.3125 2.01562C70.4818 1.94792 70.6003 1.98177 70.668 2.11719C70.8372 2.35417 70.9557 2.50651 71.0234 2.57422C71.0911 2.60807 71.125 2.65885 71.125 2.72656C71.1927 2.9974 71.1927 3.38672 71.125 3.89453C71.0911 4.36849 71.0573 4.79167 71.0234 5.16406C71.0573 5.33333 71.0742 5.5026 71.0742 5.67188C71.0742 5.80729 71.0742 5.95964 71.0742 6.12891C71.0742 6.23047 71.0573 6.36589 71.0234 6.53516C70.9896 6.70443 70.9727 6.82292 70.9727 6.89062C71.0742 7.19531 71.1081 7.43229 71.0742 7.60156C71.0742 7.73698 71.0911 7.83854 71.125 7.90625C71.1589 8.14323 71.2096 8.36328 71.2773 8.56641C71.3451 8.73568 71.2604 8.9388 71.0234 9.17578C71.0911 9.37891 71.1081 9.58203 71.0742 9.78516C71.0404 9.95443 71.0065 10.1576 70.9727 10.3945C70.9727 10.4961 70.9727 10.6146 70.9727 10.75C71.0065 10.8854 71.0234 11.0039 71.0234 11.1055C71.0234 11.2747 70.9896 11.4271 70.9219 11.5625C70.8542 11.6979 70.8542 11.8503 70.9219 12.0195C71.1927 12.0534 71.4297 12.0026 71.6328 11.8672C71.8359 11.7318 72.0391 11.6302 72.2422 11.5625C72.4453 11.4948 72.6484 11.4779 72.8516 11.5117C73.0885 11.5117 73.3086 11.4271 73.5117 11.2578C73.681 11.3932 73.8672 11.3932 74.0703 11.2578C74.2734 11.1224 74.4427 11.1562 74.5781 11.3594C74.7474 11.1562 75.0352 11.0039 75.4414 10.9023C75.8477 10.8008 76.1862 10.8008 76.457 10.9023C76.5924 11.1732 76.694 11.3594 76.7617 11.4609C76.8294 11.5286 76.8802 11.5964 76.9141 11.6641C76.9479 11.7318 76.9479 11.8333 76.9141 11.9688C76.8802 12.0703 76.8802 12.1888 76.9141 12.3242C76.9818 12.5951 76.9987 12.7812 76.9648 12.8828C76.9648 12.9505 76.9648 13.0182 76.9648 13.0859C76.9987 13.3229 77.0495 13.543 77.1172 13.7461C77.1849 13.9492 77.2357 14.1354 77.2695 14.3047L77.3203 14.6602ZM125.156 35.7852C125.292 36.056 125.342 36.3438 125.309 36.6484C125.309 36.9193 125.173 37.207 124.902 37.5117C124.632 37.681 124.411 37.8164 124.242 37.918C124.073 38.0195 123.904 38.0534 123.734 38.0195C123.599 37.9518 123.514 37.8503 123.48 37.7148C123.48 37.5456 123.413 37.4271 123.277 37.3594C123.108 37.3255 122.939 37.3424 122.77 37.4102C122.634 37.444 122.516 37.4779 122.414 37.5117C122.245 37.5456 122.025 37.5964 121.754 37.6641C121.551 37.7656 121.415 37.8164 121.348 37.8164C121.28 37.7826 121.212 37.7826 121.145 37.8164C120.738 37.9857 120.434 38.1042 120.23 38.1719C120.061 38.2057 119.892 38.1888 119.723 38.1211C119.621 38.1888 119.469 38.2396 119.266 38.2734C119.062 38.3073 118.859 38.3581 118.656 38.4258C118.453 38.4596 118.182 38.5104 117.844 38.5781C117.505 38.6458 117.167 38.6797 116.828 38.6797C116.523 38.6797 116.236 38.6458 115.965 38.5781C115.694 38.5104 115.525 38.375 115.457 38.1719C115.423 37.901 115.372 37.6979 115.305 37.5625C115.271 37.3932 115.288 37.2409 115.355 37.1055C115.355 36.8685 115.423 36.75 115.559 36.75C115.728 36.7161 115.829 36.6146 115.863 36.4453C115.829 36.1745 115.779 35.8698 115.711 35.5312C115.643 35.1589 115.694 34.888 115.863 34.7188C115.796 34.5833 115.745 34.4648 115.711 34.3633C115.677 34.2617 115.643 34.1432 115.609 34.0078C115.812 33.4661 115.931 33.026 115.965 32.6875C116.033 32.3151 116.049 31.8919 116.016 31.418C115.982 31.2487 115.948 31.0964 115.914 30.9609C115.88 30.8255 115.863 30.6732 115.863 30.5039C115.829 30.2669 115.812 30.0638 115.812 29.8945C115.846 29.6914 115.863 29.4883 115.863 29.2852C115.863 28.8112 115.829 28.3203 115.762 27.8125C115.728 27.2708 115.711 26.7461 115.711 26.2383C115.711 26.0013 115.694 25.7812 115.66 25.5781C115.66 25.3411 115.677 25.1211 115.711 24.918C115.745 24.6471 115.796 24.3255 115.863 23.9531C115.931 23.5807 115.982 23.2083 116.016 22.8359C116.016 22.7682 115.999 22.6836 115.965 22.582C115.965 22.4805 115.965 22.3789 115.965 22.2773C115.965 22.1758 115.982 22.0742 116.016 21.9727C116.049 21.8711 116.049 21.7865 116.016 21.7188C116.016 21.4141 115.999 21.1263 115.965 20.8555C115.931 20.5508 115.914 20.263 115.914 19.9922C115.914 19.6875 115.914 19.3997 115.914 19.1289C115.948 18.8242 115.965 18.5026 115.965 18.1641C115.965 18.0625 115.948 17.944 115.914 17.8086C115.88 17.6732 115.863 17.5716 115.863 17.5039C115.897 17.4023 115.931 17.3008 115.965 17.1992C116.033 17.0638 116.066 16.9284 116.066 16.793C116.066 16.6576 116.066 16.556 116.066 16.4883C116.1 16.3867 116.083 16.2682 116.016 16.1328C115.914 16.099 115.812 16.1328 115.711 16.2344C115.643 16.3359 115.576 16.4375 115.508 16.5391C115.44 16.6406 115.372 16.776 115.305 16.9453C115.271 17.0807 115.22 17.1992 115.152 17.3008C115.085 17.4362 114.983 17.5547 114.848 17.6562C114.712 17.7578 114.594 17.8594 114.492 17.9609C114.289 18.2318 114.137 18.401 114.035 18.4688C113.934 18.5026 113.849 18.5534 113.781 18.6211C113.714 18.8919 113.595 19.1289 113.426 19.332C113.29 19.5352 113.155 19.7383 113.02 19.9414C112.952 20.043 112.884 20.1615 112.816 20.2969C112.783 20.3984 112.732 20.5 112.664 20.6016C112.529 20.7031 112.427 20.8047 112.359 20.9062C112.326 20.974 112.275 21.0586 112.207 21.1602C112.038 21.4648 111.868 21.7018 111.699 21.8711C111.564 22.0065 111.445 22.1589 111.344 22.3281C111.174 22.5651 111.073 22.7344 111.039 22.8359C111.039 22.9036 111.022 22.9544 110.988 22.9883C110.921 23.0898 110.836 23.1914 110.734 23.293C110.667 23.3607 110.633 23.4792 110.633 23.6484C110.497 23.6823 110.396 23.7669 110.328 23.9023C110.294 24.0039 110.26 24.1393 110.227 24.3086C110.091 24.3424 110.007 24.4271 109.973 24.5625C109.973 24.6979 109.871 24.7487 109.668 24.7148C109.566 24.8164 109.533 24.918 109.566 25.0195C109.6 25.0872 109.549 25.1549 109.414 25.2227C109.211 25.4258 109.092 25.5951 109.059 25.7305C109.025 25.832 109.008 25.9505 109.008 26.0859C108.906 26.1536 108.822 26.2214 108.754 26.2891C108.686 26.3229 108.602 26.3568 108.5 26.3906C108.5 26.6276 108.449 26.8138 108.348 26.9492C108.246 27.0508 108.128 27.1693 107.992 27.3047C107.891 27.474 107.772 27.5924 107.637 27.6602C107.535 27.7279 107.467 27.7956 107.434 27.8633C107.264 28.0664 107.163 28.2018 107.129 28.2695C107.129 28.3372 107.112 28.4049 107.078 28.4727C106.875 28.6419 106.757 28.7604 106.723 28.8281C106.689 28.8958 106.638 28.9635 106.57 29.0312C106.503 29.099 106.418 29.1836 106.316 29.2852C106.215 29.3529 106.13 29.4206 106.062 29.4883C105.961 29.6237 105.876 29.7591 105.809 29.8945C105.741 29.9961 105.639 30.1315 105.504 30.3008C105.335 30.4023 105.182 30.5547 105.047 30.7578C104.945 30.9609 104.827 31.1471 104.691 31.3164C104.454 31.5872 104.268 31.8073 104.133 31.9766C104.031 32.1458 103.913 32.3151 103.777 32.4844C103.608 32.6536 103.439 32.8229 103.27 32.9922C103.134 33.1276 102.999 33.3138 102.863 33.5508C102.694 33.8216 102.576 34.0586 102.508 34.2617C102.44 34.4648 102.355 34.651 102.254 34.8203C102.186 34.888 102.118 34.9557 102.051 35.0234C101.983 35.0911 101.915 35.1589 101.848 35.2266C101.577 35.5651 101.34 35.9206 101.137 36.293C100.934 36.6654 100.646 36.987 100.273 37.2578C100.273 37.6302 100.121 37.918 99.8164 38.1211C99.5456 38.3242 99.2747 38.3073 99.0039 38.0703C98.9023 38.0026 98.75 37.8672 98.5469 37.6641C98.3776 37.4609 98.2591 37.2917 98.1914 37.1562C98.1237 36.987 98.0729 36.8346 98.0391 36.6992C98.0052 36.5299 97.9544 36.3607 97.8867 36.1914L97.3789 35.6836C97.2435 35.2773 97.1758 35.0573 97.1758 35.0234C96.9388 34.8542 96.7865 34.7188 96.7188 34.6172C96.6849 34.4818 96.651 34.3802 96.6172 34.3125C96.5156 34.0417 96.3633 33.7201 96.1602 33.3477C96.0924 33.2122 95.9909 32.9753 95.8555 32.6367C95.7539 32.3997 95.6693 32.2643 95.6016 32.2305C95.5339 32.1628 95.4831 32.0951 95.4492 32.0273C95.4154 31.8919 95.3984 31.7057 95.3984 31.4688C95.3307 31.3333 95.263 31.2148 95.1953 31.1133C95.1276 31.0117 95.0599 30.9102 94.9922 30.8086C94.9245 30.6732 94.8906 30.5547 94.8906 30.4531C94.9245 30.3177 94.9076 30.1654 94.8398 29.9961C94.806 29.9284 94.7383 29.8607 94.6367 29.793C94.569 29.6914 94.5182 29.5898 94.4844 29.4883C94.4167 29.1836 94.3659 28.9805 94.332 28.8789C94.2982 28.7773 94.2643 28.7096 94.2305 28.6758C94.1966 27.8971 94.0273 27.4062 93.7227 27.2031C93.6888 27 93.638 26.8307 93.5703 26.6953C93.5365 26.5599 93.4857 26.3737 93.418 26.1367C93.3164 25.8659 93.2148 25.5781 93.1133 25.2734C93.0456 24.9688 92.9609 24.6641 92.8594 24.3594C92.5885 24.1562 92.4023 23.8854 92.3008 23.5469C92.1992 23.2083 92.0469 22.9036 91.8438 22.6328C91.8438 22.5651 91.8268 22.4805 91.793 22.3789C91.7591 22.2773 91.7591 22.1419 91.793 21.9727C91.7591 21.8034 91.6914 21.668 91.5898 21.5664C91.4883 21.4648 91.4036 21.3464 91.3359 21.2109C91.2682 21.1432 91.2344 21.0586 91.2344 20.957C91.2344 20.8216 91.2174 20.7031 91.1836 20.6016C90.9805 20.2292 90.8451 19.9414 90.7773 19.7383C90.7435 19.5352 90.6419 19.3659 90.4727 19.2305C90.5742 19.0612 90.5911 18.8919 90.5234 18.7227C90.4557 18.5195 90.3372 18.3841 90.168 18.3164C89.9987 18.4857 89.9648 18.6888 90.0664 18.9258C90.168 19.1289 90.2188 19.3659 90.2188 19.6367C90.2188 19.7721 90.2018 19.8906 90.168 19.9922C90.1341 20.0599 90.1003 20.1784 90.0664 20.3477C90.0326 20.5169 90.0156 20.7031 90.0156 20.9062C90.0156 21.1094 89.9987 21.3125 89.9648 21.5156C89.931 21.7188 89.8971 21.9219 89.8633 22.125C89.8633 22.2943 89.8633 22.4635 89.8633 22.6328C89.8971 22.9036 89.8971 23.1914 89.8633 23.4961C89.8633 23.8008 89.8464 24.0378 89.8125 24.207C89.7786 24.3424 89.7279 24.4779 89.6602 24.6133C89.5924 24.7148 89.5586 24.8333 89.5586 24.9688C89.5247 25.1042 89.5078 25.2565 89.5078 25.4258C89.5417 25.5612 89.5755 25.6966 89.6094 25.832C89.6432 25.9674 89.6771 26.0859 89.7109 26.1875C89.7448 26.2891 89.7617 26.3906 89.7617 26.4922C89.7617 26.6615 89.7279 26.8477 89.6602 27.0508C89.6263 27.2201 89.6263 27.4401 89.6602 27.7109C89.6602 27.9141 89.6602 28.1172 89.6602 28.3203C89.694 28.4896 89.6263 28.6589 89.457 28.8281C89.4909 28.9297 89.5417 29.0143 89.6094 29.082C89.7109 29.1159 89.7448 29.2174 89.7109 29.3867C89.7109 29.556 89.6771 29.6745 89.6094 29.7422C89.5755 29.8099 89.5247 29.8776 89.457 29.9453C89.5247 30.0807 89.5417 30.2331 89.5078 30.4023C89.5078 30.5716 89.457 30.6901 89.3555 30.7578C89.4909 30.9948 89.5247 31.401 89.457 31.9766C89.4232 32.2474 89.4062 32.5182 89.4062 32.7891C89.4401 33.026 89.3724 33.2122 89.2031 33.3477C89.2708 33.7201 89.3047 34.1771 89.3047 34.7188C89.3047 35.2604 89.2708 35.819 89.2031 36.3945C89.2031 36.8346 89.2539 37.1393 89.3555 37.3086C89.457 37.444 89.5078 37.5964 89.5078 37.7656C89.4401 38.0026 89.3385 38.2227 89.2031 38.4258C89.1016 38.6289 88.9492 38.8151 88.7461 38.9844C88.3737 38.9844 88.0013 38.9336 87.6289 38.832C87.2904 38.6966 86.8841 38.6289 86.4102 38.6289C85.7669 38.5951 85.1237 38.5781 84.4805 38.5781C83.8711 38.5781 83.2279 38.5443 82.5508 38.4766C82.2799 38.4089 82.0768 38.375 81.9414 38.375C81.8398 38.3411 81.7044 38.2565 81.5352 38.1211C81.2643 37.8841 81.0781 37.7318 80.9766 37.6641C80.875 37.5964 80.7904 37.5117 80.7227 37.4102C80.7904 36.7669 80.9427 36.276 81.1797 35.9375C81.1797 35.2943 81.2474 34.651 81.3828 34.0078C81.4844 33.6354 81.5352 33.3646 81.5352 33.1953C81.5352 33.026 81.5521 32.8737 81.5859 32.7383C81.5859 32.6706 81.6029 32.5859 81.6367 32.4844C81.7044 32.349 81.7552 32.2305 81.7891 32.1289C81.8568 31.9258 81.8737 31.8073 81.8398 31.7734C81.806 31.7057 81.7891 31.638 81.7891 31.5703C81.8229 31.4688 81.8568 31.3841 81.8906 31.3164C81.9245 31.2148 81.9583 31.1133 81.9922 31.0117C82.0599 30.4701 82.0938 29.9622 82.0938 29.4883C82.0938 28.9805 82.1615 28.4727 82.2969 27.9648C82.3307 27.8633 82.3646 27.7448 82.3984 27.6094C82.4323 27.474 82.4831 27.3724 82.5508 27.3047C82.4831 26.9661 82.4831 26.5938 82.5508 26.1875C82.6185 25.7812 82.7201 25.4258 82.8555 25.1211C82.957 24.8841 82.974 24.5456 82.9062 24.1055C82.8724 23.6654 82.8893 23.2591 82.957 22.8867C82.9909 22.7513 83.0247 22.6328 83.0586 22.5312C83.1263 22.4297 83.1771 22.3281 83.2109 22.2266C83.2786 22.0573 83.2956 21.8711 83.2617 21.668C83.2617 21.431 83.3464 21.2448 83.5156 21.1094C83.3802 20.9401 83.3633 20.7878 83.4648 20.6523C83.5664 20.5169 83.6172 20.3477 83.6172 20.1445C83.6849 19.8398 83.7018 19.6198 83.668 19.4844C83.668 19.349 83.6849 19.2474 83.7188 19.1797C83.7526 19.0781 83.8203 18.9596 83.9219 18.8242C84.0573 18.6888 84.125 18.5365 84.125 18.3672C84.0911 18.0964 84.0911 17.8594 84.125 17.6562C84.1589 17.4531 84.1927 17.2331 84.2266 16.9961C84.2604 16.6914 84.2943 16.3359 84.3281 15.9297C84.3958 15.5234 84.4635 15.0833 84.5312 14.6094C84.5312 14.237 84.5651 13.9831 84.6328 13.8477C84.7005 13.7122 84.7513 13.5599 84.7852 13.3906C84.7174 13.2552 84.7005 13.1198 84.7344 12.9844C84.8021 12.8151 84.8529 12.6797 84.8867 12.5781C85.0221 11.8672 85.1406 11.1901 85.2422 10.5469C85.3438 9.86979 85.4792 9.17578 85.6484 8.46484C85.6484 8.19401 85.6654 8.02474 85.6992 7.95703C85.7669 7.88932 85.8008 7.82161 85.8008 7.75391C85.8346 7.65234 85.8346 7.55078 85.8008 7.44922C85.8008 7.3138 85.8008 7.19531 85.8008 7.09375C85.8346 6.99219 85.8854 6.89062 85.9531 6.78906C86.0208 6.6875 86.0547 6.60286 86.0547 6.53516C86.0885 6.26432 86.0885 6.01042 86.0547 5.77344C86.0208 5.53646 86.0378 5.28255 86.1055 5.01172C86.1055 4.91016 86.1055 4.80859 86.1055 4.70703C86.1393 4.57161 86.1562 4.47005 86.1562 4.40234C86.3255 3.79297 86.4271 3.31901 86.4609 2.98047C86.4948 2.64193 86.5286 2.2526 86.5625 1.8125C86.5625 1.60938 86.5456 1.42318 86.5117 1.25391C86.5117 1.08464 86.5286 0.88151 86.5625 0.644531C86.7656 0.30599 87.0026 0.153646 87.2734 0.1875C87.5443 0.1875 87.7812 0.221354 87.9844 0.289062C88.0521 0.458333 88.1367 0.610677 88.2383 0.746094C88.3737 0.847656 88.4414 1.01693 88.4414 1.25391C88.5091 1.32161 88.5768 1.40625 88.6445 1.50781C88.7122 1.57552 88.7799 1.66016 88.8477 1.76172C88.8477 1.96484 88.8646 2.13411 88.8984 2.26953C88.9323 2.40495 88.9831 2.55729 89.0508 2.72656C89.1185 2.92969 89.2201 3.16667 89.3555 3.4375C89.4909 3.70833 89.5924 3.96224 89.6602 4.19922C89.7279 4.36849 89.7617 4.50391 89.7617 4.60547C89.7617 4.70703 89.7786 4.80859 89.8125 4.91016C89.8802 5.07943 89.9479 5.23177 90.0156 5.36719C90.1172 5.46875 90.2018 5.58724 90.2695 5.72266C90.3372 5.82422 90.3711 5.94271 90.3711 6.07812C90.3711 6.21354 90.388 6.3151 90.4219 6.38281C90.4896 6.58594 90.5234 6.73828 90.5234 6.83984C90.5234 6.90755 90.5404 6.97526 90.5742 7.04297C90.6419 7.21224 90.6927 7.38151 90.7266 7.55078C90.7943 7.6862 90.862 7.83854 90.9297 8.00781C90.9974 8.17708 91.0651 8.36328 91.1328 8.56641C91.2005 8.76953 91.2682 8.95573 91.3359 9.125C91.4036 9.29427 91.4714 9.44661 91.5391 9.58203C91.6406 9.71745 91.7253 9.86979 91.793 10.0391C91.9622 10.3776 92.1146 10.7161 92.25 11.0547C92.3854 11.3932 92.5378 11.7318 92.707 12.0703C92.8086 12.3411 92.8932 12.612 92.9609 12.8828C93.0286 13.1536 93.1302 13.4245 93.2656 13.6953C93.7057 14.474 94.0104 15.2188 94.1797 15.9297C94.3828 16.6406 94.6706 17.2669 95.043 17.8086C95.1107 18.3164 95.2122 18.8242 95.3477 19.332C95.5169 19.806 95.6862 20.263 95.8555 20.7031C95.9232 21.1771 96.0247 21.4987 96.1602 21.668C96.3294 21.8034 96.3802 22.0234 96.3125 22.3281C96.3802 22.4635 96.4818 22.5651 96.6172 22.6328C96.7526 22.7005 96.8542 22.8021 96.9219 22.9375C96.9896 23.5469 97.1419 24.0547 97.3789 24.4609C97.6159 24.8333 97.7682 25.3073 97.8359 25.8828C97.9036 25.9844 97.9714 26.1029 98.0391 26.2383C98.1406 26.3398 98.2422 26.4245 98.3438 26.4922C98.3438 26.6953 98.3776 26.8815 98.4453 27.0508C98.513 27.2201 98.5807 27.3893 98.6484 27.5586C98.7161 27.7279 98.7839 27.8971 98.8516 28.0664C98.9531 28.2018 99.1055 28.3034 99.3086 28.3711C99.444 28.2357 99.5286 28.0833 99.5625 27.9141C99.6302 27.7109 99.6979 27.5247 99.7656 27.3555C99.7995 27.2539 99.8333 27.1693 99.8672 27.1016C99.901 27.0339 99.9518 26.9492 100.02 26.8477C100.155 26.543 100.29 26.2044 100.426 25.832C100.561 25.5273 100.663 25.3242 100.73 25.2227C100.798 25.1211 100.866 25.0365 100.934 24.9688C101.103 24.6641 101.221 24.4779 101.289 24.4102C101.391 24.3086 101.458 24.224 101.492 24.1562C101.594 23.9193 101.678 23.75 101.746 23.6484C101.848 23.513 101.932 23.3945 102 23.293C102.135 23.1576 102.22 23.056 102.254 22.9883C102.322 22.8867 102.389 22.8021 102.457 22.7344C102.525 22.6328 102.66 22.4466 102.863 22.1758C102.965 21.8372 103.049 21.668 103.117 21.668C103.185 21.6341 103.236 21.5833 103.27 21.5156C103.473 21.2109 103.625 20.957 103.727 20.7539C103.862 20.5169 104.014 20.2969 104.184 20.0938C104.319 19.9245 104.454 19.7383 104.59 19.5352C104.759 19.332 104.928 19.1458 105.098 18.9766C105.199 18.875 105.301 18.7565 105.402 18.6211C105.538 18.4857 105.656 18.3672 105.758 18.2656C105.961 18.1302 106.113 17.9609 106.215 17.7578C106.35 17.5547 106.503 17.3516 106.672 17.1484C106.807 17.013 106.926 16.8945 107.027 16.793C107.129 16.6914 107.23 16.556 107.332 16.3867C107.535 16.1159 107.755 15.8451 107.992 15.5742C108.263 15.3034 108.483 14.9818 108.652 14.6094C108.754 14.474 108.855 14.3385 108.957 14.2031C109.059 14.0677 109.16 13.9154 109.262 13.7461C109.499 13.5768 109.685 13.3398 109.82 13.0352C109.99 12.6966 110.243 12.4766 110.582 12.375C110.988 11.4948 111.327 10.8346 111.598 10.3945C111.801 10.2253 111.919 10.0898 111.953 9.98828C111.987 9.88672 112.004 9.80208 112.004 9.73438C112.275 9.59896 112.478 9.37891 112.613 9.07422C112.783 8.76953 113.02 8.53255 113.324 8.36328C113.493 7.99089 113.73 7.70312 114.035 7.5C114.34 7.26302 114.594 6.95833 114.797 6.58594C114.932 6.38281 115 6.2474 115 6.17969C115.034 6.11198 115.085 6.04427 115.152 5.97656C115.186 5.90885 115.237 5.82422 115.305 5.72266C115.372 5.62109 115.44 5.53646 115.508 5.46875C115.677 5.23177 115.812 5.01172 115.914 4.80859C116.049 4.57161 116.236 4.35156 116.473 4.14844C116.507 3.97917 116.49 3.8776 116.422 3.84375C116.388 3.77604 116.388 3.67448 116.422 3.53906C116.49 3.47135 116.574 3.38672 116.676 3.28516C116.777 3.14974 116.879 3.03125 116.98 2.92969C117.353 2.625 117.607 2.38802 117.742 2.21875C117.911 2.04948 118.132 1.91406 118.402 1.8125C118.538 1.77865 118.69 1.77865 118.859 1.8125C119.062 1.8125 119.232 1.88021 119.367 2.01562C119.503 2.1849 119.553 2.35417 119.52 2.52344C119.486 2.65885 119.503 2.86198 119.57 3.13281C119.604 3.30208 119.638 3.47135 119.672 3.64062C119.74 3.77604 119.807 3.96224 119.875 4.19922L120.332 6.33203C120.366 6.53516 120.383 6.73828 120.383 6.94141C120.383 7.14453 120.417 7.33073 120.484 7.5C120.518 7.77083 120.586 8.02474 120.688 8.26172C120.789 8.4987 120.857 8.7526 120.891 9.02344C120.924 9.29427 120.924 9.5651 120.891 9.83594C120.891 10.0729 120.958 10.276 121.094 10.4453C120.992 10.75 120.958 10.9362 120.992 11.0039C121.026 11.0378 121.06 11.0885 121.094 11.1562C121.195 11.5625 121.246 11.9688 121.246 12.375C121.28 12.7812 121.314 13.1875 121.348 13.5938C121.382 13.6615 121.415 13.763 121.449 13.8984C121.483 14 121.5 14.0846 121.5 14.1523C121.568 14.3216 121.585 14.4401 121.551 14.5078C121.517 14.5755 121.5 14.6432 121.5 14.7109C121.534 14.8464 121.585 14.9818 121.652 15.1172C121.72 15.2188 121.771 15.3203 121.805 15.4219C121.839 15.5234 121.839 15.625 121.805 15.7266C121.805 15.8281 121.839 15.9297 121.906 16.0312C122.008 16.4036 122.059 16.6914 122.059 16.8945C122.092 17.0977 122.126 17.2839 122.16 17.4531C122.262 17.8255 122.312 18.0794 122.312 18.2148C122.312 18.3503 122.312 18.4518 122.312 18.5195C122.38 18.7904 122.448 19.0951 122.516 19.4336C122.617 19.7721 122.6 20.1276 122.465 20.5C122.465 20.6354 122.499 20.737 122.566 20.8047C122.668 20.8385 122.736 20.9232 122.77 21.0586C122.702 21.1263 122.702 21.2617 122.77 21.4648C122.837 21.6341 122.871 21.7018 122.871 21.668C122.702 21.7695 122.685 21.9727 122.82 22.2773C122.956 22.582 123.023 22.819 123.023 22.9883C123.023 23.7669 123.091 24.444 123.227 25.0195C123.362 25.5612 123.379 26.1029 123.277 26.6445C123.447 26.8138 123.531 27.0169 123.531 27.2539C123.531 27.4909 123.565 27.7448 123.633 28.0156C123.802 28.6589 123.87 29.2174 123.836 29.6914C123.836 30.1315 123.887 30.5716 123.988 31.0117C124.022 31.0794 124.056 31.1641 124.09 31.2656C124.158 31.3333 124.208 31.418 124.242 31.5195C124.31 31.7904 124.327 32.0951 124.293 32.4336C124.293 32.7721 124.361 33.0768 124.496 33.3477C124.564 33.7539 124.615 34.1263 124.648 34.4648C124.682 34.7695 124.733 35.0573 124.801 35.3281L125.156 35.7852ZM161.16 11.9688C161.16 12.0703 161.109 12.2057 161.008 12.375C160.94 12.5443 160.906 12.6966 160.906 12.832C160.94 13.069 160.94 13.2214 160.906 13.2891C160.906 13.3568 160.906 13.4245 160.906 13.4922C160.94 13.6615 160.94 13.7799 160.906 13.8477C160.872 13.9154 160.872 13.9831 160.906 14.0508C160.94 14.2539 160.923 14.4062 160.855 14.5078C160.822 14.6094 160.805 14.694 160.805 14.7617C160.771 14.8633 160.771 14.9818 160.805 15.1172C160.839 15.2188 160.855 15.3203 160.855 15.4219C160.788 15.6927 160.737 15.9128 160.703 16.082C160.703 16.2174 160.686 16.319 160.652 16.3867C160.652 16.556 160.635 16.7422 160.602 16.9453C160.602 17.1484 160.618 17.3685 160.652 17.6055C160.652 17.6732 160.669 17.7578 160.703 17.8594C160.771 17.9609 160.805 18.0625 160.805 18.1641C160.839 18.5365 160.822 18.9258 160.754 19.332C160.72 19.7383 160.72 20.1276 160.754 20.5C160.754 20.6693 160.771 20.8216 160.805 20.957C160.839 21.0924 160.839 21.2448 160.805 21.4141C160.805 21.651 160.771 21.8711 160.703 22.0742C160.635 22.2773 160.585 22.5143 160.551 22.7852C160.585 22.9883 160.585 23.2253 160.551 23.4961C160.517 23.7331 160.551 23.9362 160.652 24.1055C160.585 24.3424 160.5 24.5456 160.398 24.7148C160.466 25.1888 160.449 25.6458 160.348 26.0859C160.28 26.526 160.246 26.9831 160.246 27.457C160.28 27.6263 160.314 27.7956 160.348 27.9648C160.382 28.1003 160.398 28.2526 160.398 28.4219C160.398 28.4896 160.382 28.5742 160.348 28.6758C160.314 28.7773 160.297 28.8789 160.297 28.9805C160.365 29.2852 160.365 29.5052 160.297 29.6406C160.263 29.776 160.229 29.8776 160.195 29.9453C160.161 30.3177 160.145 30.6224 160.145 30.8594C160.145 31.0625 160.06 31.2995 159.891 31.5703C159.789 31.7396 159.772 32.0104 159.84 32.3828C159.908 32.7214 159.857 33.0091 159.688 33.2461C159.755 33.4492 159.772 33.6354 159.738 33.8047C159.738 33.974 159.738 34.194 159.738 34.4648C159.772 34.9388 159.755 35.2773 159.688 35.4805C159.654 35.6497 159.637 35.819 159.637 35.9883C159.603 36.3945 159.62 36.7839 159.688 37.1562C159.755 37.4948 159.806 37.8333 159.84 38.1719C159.704 38.5104 159.738 38.7982 159.941 39.0352C160.145 39.2721 160.246 39.526 160.246 39.7969C160.178 39.9661 160.128 40.1016 160.094 40.2031C160.06 40.3385 160.043 40.4232 160.043 40.457C159.874 40.5247 159.721 40.5924 159.586 40.6602C159.451 40.7617 159.315 40.8294 159.18 40.8633C159.078 40.8633 158.977 40.8464 158.875 40.8125C158.773 40.7786 158.655 40.7617 158.52 40.7617C158.384 40.7279 158.215 40.7279 158.012 40.7617C157.842 40.8294 157.673 40.8633 157.504 40.8633C157.335 40.8971 157.132 40.8971 156.895 40.8633C156.691 40.8633 156.505 40.8971 156.336 40.9648C156.133 40.9987 155.93 41.0664 155.727 41.168C155.557 41.2695 155.388 41.3203 155.219 41.3203C154.982 41.5573 154.779 41.6589 154.609 41.625C154.44 41.625 154.322 41.6419 154.254 41.6758C154.051 41.5065 153.882 41.2357 153.746 40.8633C153.611 40.4909 153.645 40.2031 153.848 40C153.678 39.5599 153.645 39.069 153.746 38.5273C153.848 37.9857 153.848 37.444 153.746 36.9023C153.475 37.0039 153.221 37.1393 152.984 37.3086C152.781 37.4779 152.578 37.6641 152.375 37.8672C152.273 37.9349 152.189 38.0365 152.121 38.1719C152.053 38.2734 151.952 38.3581 151.816 38.4258C151.681 38.4935 151.529 38.5612 151.359 38.6289C151.19 38.6966 151.072 38.7812 151.004 38.8828C150.835 38.9505 150.648 38.9844 150.445 38.9844C150.276 38.9844 150.107 39.0182 149.938 39.0859C149.701 39.1536 149.464 39.2214 149.227 39.2891C148.99 39.3229 148.719 39.3737 148.414 39.4414C148.211 39.5091 147.94 39.5938 147.602 39.6953C147.263 39.7969 146.908 39.8138 146.535 39.7461C146.264 39.6784 146.078 39.6784 145.977 39.7461C145.909 39.7799 145.824 39.7969 145.723 39.7969C145.452 39.8646 145.164 39.8307 144.859 39.6953C144.792 39.8307 144.622 39.8646 144.352 39.7969C144.115 39.7292 143.928 39.6615 143.793 39.5938C143.522 39.6953 143.268 39.7122 143.031 39.6445C142.794 39.5768 142.54 39.526 142.27 39.4922C142.1 39.4922 141.999 39.4414 141.965 39.3398C141.965 39.2383 141.897 39.1706 141.762 39.1367C141.017 39.1706 140.221 39.0859 139.375 38.8828C139.307 38.7474 139.206 38.6458 139.07 38.5781C138.969 38.5104 138.901 38.3919 138.867 38.2227C138.698 38.2565 138.579 38.2227 138.512 38.1211C138.478 38.0195 138.376 37.9688 138.207 37.9688C138.139 37.7995 138.038 37.681 137.902 37.6133C137.801 37.5117 137.716 37.4102 137.648 37.3086C137.479 37.3086 137.344 37.2747 137.242 37.207C137.174 37.1393 137.056 37.1055 136.887 37.1055C136.684 36.8346 136.565 36.6823 136.531 36.6484C136.497 36.6146 136.464 36.5807 136.43 36.5469C136.26 36.4115 136.125 36.3438 136.023 36.3438C135.956 36.3438 135.905 36.3268 135.871 36.293C135.702 36.1237 135.566 35.9883 135.465 35.8867C135.363 35.7852 135.262 35.6667 135.16 35.5312C134.957 35.2604 134.788 35.0911 134.652 35.0234C134.517 34.9219 134.466 34.7526 134.5 34.5156C134.195 34.3125 133.992 34.1771 133.891 34.1094C133.823 34.0078 133.755 33.9062 133.688 33.8047C133.552 33.6354 133.467 33.4661 133.434 33.2969C133.4 33.1276 133.315 33.0091 133.18 32.9414C132.943 32.569 132.757 32.2812 132.621 32.0781C132.486 31.8411 132.299 31.6888 132.062 31.6211C132.13 31.4518 132.13 31.3503 132.062 31.3164C131.995 31.2826 131.978 31.1979 132.012 31.0625C131.741 30.8255 131.538 30.5378 131.402 30.1992C131.267 29.8607 131.148 29.5052 131.047 29.1328C130.945 28.7266 130.861 28.3372 130.793 27.9648C130.725 27.5586 130.624 27.1693 130.488 26.7969C130.522 26.3229 130.539 25.832 130.539 25.3242C130.539 24.7826 130.624 24.3086 130.793 23.9023C130.895 23.6654 130.945 23.4622 130.945 23.293C130.945 23.1237 130.962 22.9544 130.996 22.7852C131.03 22.6159 131.047 22.4635 131.047 22.3281C131.081 22.1589 131.115 21.9896 131.148 21.8203C131.25 21.2786 131.335 20.8724 131.402 20.6016C131.504 20.3307 131.639 20.0938 131.809 19.8906C131.741 19.6536 131.741 19.4505 131.809 19.2812C131.876 19.0781 131.961 18.9089 132.062 18.7734C132.164 18.6042 132.266 18.4349 132.367 18.2656C132.469 18.0964 132.52 17.9102 132.52 17.707C132.689 17.5716 132.807 17.4193 132.875 17.25C132.977 17.0469 133.095 16.8607 133.23 16.6914C133.298 16.556 133.383 16.4036 133.484 16.2344C133.586 16.0651 133.688 15.8958 133.789 15.7266C133.857 15.625 133.941 15.5234 134.043 15.4219C134.178 15.3203 134.229 15.1849 134.195 15.0156C134.297 14.9479 134.382 14.8802 134.449 14.8125C134.517 14.7448 134.635 14.6771 134.805 14.6094C135.076 14.2031 135.296 13.8477 135.465 13.543C135.634 13.2044 135.837 12.8997 136.074 12.6289C136.21 12.4935 136.328 12.3919 136.43 12.3242C136.565 12.2227 136.701 12.1211 136.836 12.0195C136.904 11.8503 137.022 11.7487 137.191 11.7148C137.395 11.6471 137.513 11.5286 137.547 11.3594C137.885 11.2917 138.224 11.224 138.562 11.1562C138.901 11.0547 139.206 10.9023 139.477 10.6992C139.68 10.6654 139.883 10.6484 140.086 10.6484C140.323 10.6146 140.526 10.5299 140.695 10.3945C141.034 10.4622 141.305 10.4453 141.508 10.3438C141.711 10.2083 141.897 10.0729 142.066 9.9375C142.608 9.9375 143.116 9.9375 143.59 9.9375C144.098 9.90365 144.639 9.90365 145.215 9.9375C145.486 9.9375 145.74 9.92057 145.977 9.88672C146.247 9.85286 146.484 9.85286 146.688 9.88672C146.857 9.88672 147.009 9.88672 147.145 9.88672C147.28 9.88672 147.398 9.9375 147.5 10.0391C147.805 9.90365 148.092 9.92057 148.363 10.0898C148.431 10.1237 148.516 10.1406 148.617 10.1406C148.719 10.1068 148.854 10.1237 149.023 10.1914C149.362 10.293 149.582 10.3438 149.684 10.3438C149.819 10.3438 149.921 10.3438 149.988 10.3438C150.259 10.4792 150.428 10.5638 150.496 10.5977C150.564 10.6315 150.682 10.7161 150.852 10.8516C151.292 11.1224 151.63 11.3255 151.867 11.4609C152.138 11.5625 152.392 11.6979 152.629 11.8672C152.798 12.0703 152.917 12.1888 152.984 12.2227C153.052 12.2565 153.12 12.3073 153.188 12.375C153.255 12.4427 153.323 12.5273 153.391 12.6289C153.458 12.6966 153.543 12.7812 153.645 12.8828C153.712 13.0182 153.814 13.1367 153.949 13.2383C154.085 13.3398 154.22 13.4583 154.355 13.5938C154.423 13.6615 154.474 13.7461 154.508 13.8477C154.576 13.9492 154.66 14.0339 154.762 14.1016C154.829 14.1693 154.931 14.2708 155.066 14.4062C155.236 14.5078 155.32 14.6432 155.32 14.8125C155.456 14.3385 155.49 13.8477 155.422 13.3398C155.354 12.7982 155.253 12.3411 155.117 11.9688C155.016 11.7656 154.914 11.6133 154.812 11.5117C154.711 11.3763 154.711 11.1562 154.812 10.8516C154.846 10.7161 154.914 10.5638 155.016 10.3945C155.151 10.2253 155.253 10.1068 155.32 10.0391C155.32 10.0729 155.439 10.1068 155.676 10.1406C155.913 10.1406 156.116 10.1406 156.285 10.1406C156.454 10.1745 156.59 10.2083 156.691 10.2422C156.827 10.2422 156.962 10.2422 157.098 10.2422C157.47 10.2422 157.927 10.2591 158.469 10.293C159.01 10.3268 159.467 10.4115 159.84 10.5469C160.111 10.4792 160.331 10.4961 160.5 10.5977C160.669 10.6654 160.855 10.7331 161.059 10.8008C161.092 10.9362 161.092 11.0547 161.059 11.1562C161.059 11.224 161.076 11.3255 161.109 11.4609L161.16 11.9688ZM153.797 24.1562C153.729 24.0547 153.678 23.9193 153.645 23.75C153.645 23.5469 153.645 23.3607 153.645 23.1914C153.577 23.0898 153.492 23.0221 153.391 22.9883C153.323 22.9206 153.255 22.8529 153.188 22.7852C153.188 22.5143 153.137 22.2943 153.035 22.125C152.967 21.9557 152.917 21.7865 152.883 21.6172C152.951 21.3464 152.934 21.1602 152.832 21.0586C152.764 20.9232 152.714 20.7878 152.68 20.6523C152.612 20.4831 152.578 20.3138 152.578 20.1445C152.578 19.9414 152.561 19.7383 152.527 19.5352C152.358 19.4336 152.257 19.332 152.223 19.2305C152.189 19.1289 152.138 19.0443 152.07 18.9766C151.799 18.7057 151.596 18.5026 151.461 18.3672C151.326 18.2318 151.19 18.0964 151.055 17.9609C150.75 17.6562 150.428 17.4362 150.09 17.3008C149.819 17.1315 149.565 16.9961 149.328 16.8945C149.091 16.7591 148.871 16.6406 148.668 16.5391C148.465 16.4375 148.262 16.3867 148.059 16.3867C147.855 16.3867 147.618 16.3529 147.348 16.2852C147.178 16.2174 147.043 16.1667 146.941 16.1328C146.84 16.0651 146.738 16.0143 146.637 15.9805C146.569 15.9805 146.467 15.9974 146.332 16.0312C146.197 16.0312 146.061 16.0143 145.926 15.9805C145.824 15.9805 145.706 15.9635 145.57 15.9297C145.469 15.862 145.384 15.8281 145.316 15.8281C144.978 15.8958 144.724 15.8958 144.555 15.8281C144.385 15.7266 144.267 15.7096 144.199 15.7773C143.861 15.8112 143.624 15.8789 143.488 15.9805C143.387 16.082 143.217 16.2005 142.98 16.3359C142.676 16.4714 142.473 16.5729 142.371 16.6406C142.303 16.6745 142.236 16.7083 142.168 16.7422C141.829 16.9115 141.592 17.0469 141.457 17.1484C141.322 17.25 141.203 17.3346 141.102 17.4023C140.865 17.5039 140.729 17.5885 140.695 17.6562C140.661 17.6901 140.611 17.707 140.543 17.707C140.475 17.8086 140.408 17.8932 140.34 17.9609C140.272 18.0286 140.204 18.1133 140.137 18.2148C139.934 18.3841 139.764 18.5365 139.629 18.6719C139.493 18.7734 139.392 18.8581 139.324 18.9258C139.121 19.1289 138.884 19.2812 138.613 19.3828C138.579 19.7552 138.461 20.043 138.258 20.2461C138.055 20.4154 137.953 20.6862 137.953 21.0586C137.818 21.2279 137.716 21.3971 137.648 21.5664C137.581 21.7018 137.513 21.8542 137.445 22.0234C137.378 22.2266 137.327 22.4466 137.293 22.6836C137.293 22.8867 137.259 23.1237 137.191 23.3945C137.124 23.5977 137.056 23.7669 136.988 23.9023C136.921 24.0378 136.87 24.1901 136.836 24.3594C136.904 24.8333 136.887 25.1888 136.785 25.4258C136.717 25.6289 136.667 25.8659 136.633 26.1367C136.633 26.2721 136.65 26.4076 136.684 26.543C136.751 26.6784 136.785 26.8307 136.785 27C136.785 27.2708 136.768 27.474 136.734 27.6094C136.701 27.7109 136.684 27.7956 136.684 27.8633C136.717 28.1003 136.785 28.3203 136.887 28.5234C137.022 28.7266 137.056 28.9635 136.988 29.2344C137.225 29.4036 137.445 29.5729 137.648 29.7422C137.852 29.9115 138.089 30.0638 138.359 30.1992C138.596 30.6055 138.884 30.944 139.223 31.2148C139.561 31.4857 139.883 31.7565 140.188 32.0273C140.492 32.3659 140.831 32.6029 141.203 32.7383C141.508 32.9076 141.745 33.026 141.914 33.0938C142.117 33.1276 142.303 33.1615 142.473 33.1953C142.574 33.2292 142.693 33.2799 142.828 33.3477C142.997 33.3815 143.116 33.4154 143.184 33.4492C143.759 33.5169 144.284 33.6185 144.758 33.7539C145.232 33.8555 145.655 33.9062 146.027 33.9062C146.129 33.9401 146.247 33.957 146.383 33.957C146.518 33.9232 146.637 33.8893 146.738 33.8555C146.874 33.8555 147.009 33.8555 147.145 33.8555C147.314 33.8555 147.449 33.8385 147.551 33.8047C147.822 33.6693 147.991 33.6016 148.059 33.6016C148.126 33.6016 148.194 33.5846 148.262 33.5508C148.363 33.5169 148.482 33.4661 148.617 33.3984C148.753 33.3307 148.888 33.3646 149.023 33.5C149.125 33.2969 149.26 33.1276 149.43 32.9922C149.633 32.8568 149.819 32.7383 149.988 32.6367C150.158 32.5013 150.31 32.349 150.445 32.1797C150.615 32.0104 150.716 31.7904 150.75 31.5195C150.919 31.2487 151.072 31.0625 151.207 30.9609C151.342 30.8255 151.461 30.6901 151.562 30.5547C151.63 30.4531 151.681 30.3346 151.715 30.1992C151.783 30.0299 151.85 29.9115 151.918 29.8438C152.087 29.5729 152.206 29.3529 152.273 29.1836C152.375 28.9805 152.51 28.7943 152.68 28.625C152.612 28.4557 152.612 28.3034 152.68 28.168C152.781 27.9987 152.866 27.8464 152.934 27.7109C153.103 27.237 153.221 26.7969 153.289 26.3906C153.357 25.9505 153.391 25.4427 153.391 24.8672C153.56 24.6302 153.695 24.3932 153.797 24.1562ZM181.676 14.6602C181.642 14.9987 181.642 15.2357 181.676 15.3711C181.71 15.5065 181.71 15.6081 181.676 15.6758C181.608 15.9128 181.49 16.082 181.32 16.1836C181.151 16.2513 180.999 16.3529 180.863 16.4883C180.525 16.319 180.22 16.2852 179.949 16.3867C179.678 16.4883 179.408 16.5729 179.137 16.6406C179.069 16.6406 178.951 16.6576 178.781 16.6914C178.646 16.6914 178.544 16.6914 178.477 16.6914C178.206 16.6914 177.952 16.7422 177.715 16.8438C177.478 16.9453 177.258 17.013 177.055 17.0469C176.885 17.0807 176.733 17.0807 176.598 17.0469C176.462 17.013 176.31 17.0469 176.141 17.1484C176.005 17.4531 175.954 17.7917 175.988 18.1641C176.056 18.5026 176.056 18.8581 175.988 19.2305C175.921 19.7721 175.904 20.2122 175.938 20.5508C176.005 20.8555 176.039 21.1432 176.039 21.4141C176.039 21.7188 176.022 22.0065 175.988 22.2773C175.988 22.5482 176.056 22.8021 176.191 23.0391C176.09 23.2422 176.022 23.4961 175.988 23.8008C175.988 24.0716 175.988 24.3424 175.988 24.6133C175.921 25.0872 175.921 25.6289 175.988 26.2383C176.056 26.8477 176.09 27.3893 176.09 27.8633C176.056 28.1003 176.022 28.3203 175.988 28.5234C175.988 28.6927 175.971 28.8789 175.938 29.082C175.87 29.3529 175.853 29.5221 175.887 29.5898C175.921 29.6576 175.938 29.7253 175.938 29.793C175.904 30.1315 175.887 30.5208 175.887 30.9609C175.921 31.401 175.921 31.8581 175.887 32.332C175.887 32.6367 175.87 32.8568 175.836 32.9922C175.802 33.1276 175.785 33.2461 175.785 33.3477C175.819 33.6185 175.853 33.9062 175.887 34.2109C175.954 34.5156 175.87 34.8203 175.633 35.125C175.633 35.2266 175.65 35.3281 175.684 35.4297C175.751 35.4974 175.802 35.582 175.836 35.6836C175.768 35.9544 175.751 36.1576 175.785 36.293C175.853 36.4284 175.887 36.5299 175.887 36.5977C175.819 36.9701 175.802 37.2917 175.836 37.5625C175.87 37.7995 175.904 38.0365 175.938 38.2734C175.938 39.3229 175.717 40.0169 175.277 40.3555C174.837 40.2878 174.397 40.2201 173.957 40.1523C173.551 40.0846 173.128 40.0846 172.688 40.1523C172.484 40.1862 172.281 40.2201 172.078 40.2539C171.875 40.3216 171.638 40.3047 171.367 40.2031C171.198 40.237 171.079 40.2708 171.012 40.3047C170.944 40.3724 170.842 40.4062 170.707 40.4062C170.572 40.4401 170.453 40.4062 170.352 40.3047C170.25 40.2031 170.132 40.1354 169.996 40.1016C169.928 39.6953 169.911 39.1875 169.945 38.5781C170.013 37.9688 170.03 37.3255 169.996 36.6484C169.996 36.4792 169.979 36.3438 169.945 36.2422C169.911 36.1068 169.878 35.9544 169.844 35.7852C169.81 35.5482 169.793 35.3112 169.793 35.0742C169.827 34.8034 169.827 34.5326 169.793 34.2617C169.793 34.1602 169.81 34.0586 169.844 33.957C169.878 33.8216 169.895 33.7031 169.895 33.6016C169.895 33.4661 169.861 33.3984 169.793 33.3984C169.759 33.3646 169.742 33.2461 169.742 33.043C169.742 32.6029 169.776 32.1966 169.844 31.8242C169.945 31.4518 170.03 31.0794 170.098 30.707C170.03 30.3008 169.996 30.013 169.996 29.8438C169.996 29.6406 169.996 29.4714 169.996 29.3359C169.962 29.2005 169.911 29.0482 169.844 28.8789C169.776 28.7096 169.742 28.5404 169.742 28.3711C169.742 28.2357 169.742 28.1341 169.742 28.0664C169.776 27.9987 169.759 27.8802 169.691 27.7109C169.658 27.1354 169.658 26.6276 169.691 26.1875C169.759 25.7135 169.776 25.2565 169.742 24.8164C169.641 24.444 169.59 24.1562 169.59 23.9531C169.59 23.7161 169.573 23.513 169.539 23.3438C169.505 23.1068 169.471 22.8529 169.438 22.582C169.438 22.3112 169.454 22.0234 169.488 21.7188C169.488 21.5833 169.505 21.4648 169.539 21.3633C169.573 21.2617 169.59 21.1432 169.59 21.0078C169.59 20.8385 169.556 20.6862 169.488 20.5508C169.454 20.4154 169.438 20.263 169.438 20.0938C169.438 19.8229 169.454 19.5352 169.488 19.2305C169.556 18.9258 169.59 18.638 169.59 18.3672C169.556 18.2656 169.522 18.1641 169.488 18.0625C169.454 17.9271 169.438 17.8086 169.438 17.707C169.404 17.3685 169.421 17.0469 169.488 16.7422C169.59 16.4375 169.607 16.1328 169.539 15.8281C168.862 15.9635 168.32 16.099 167.914 16.2344C167.779 16.2682 167.643 16.3021 167.508 16.3359C167.406 16.3359 167.271 16.3698 167.102 16.4375C166.831 16.5052 166.611 16.5729 166.441 16.6406C166.272 16.7083 166.086 16.6576 165.883 16.4883C165.578 16.2174 165.392 15.9974 165.324 15.8281C165.29 15.5573 165.324 15.3372 165.426 15.168C165.561 14.9987 165.714 14.8294 165.883 14.6602C165.815 14.5247 165.815 14.4232 165.883 14.3555C165.951 14.2878 166.001 14.1693 166.035 14C166.069 13.8307 166.069 13.6615 166.035 13.4922C166.035 13.2891 166.069 13.0859 166.137 12.8828C166.204 12.6797 166.289 12.4935 166.391 12.3242C166.492 12.1549 166.56 11.9857 166.594 11.8164C166.628 11.5794 166.611 11.3424 166.543 11.1055C166.475 10.8685 166.475 10.6315 166.543 10.3945C166.645 9.81901 167.068 9.59896 167.812 9.73438C168.016 9.80208 168.202 9.85286 168.371 9.88672C168.54 9.92057 168.659 10.0221 168.727 10.1914C169.031 10.1576 169.251 10.1914 169.387 10.293C169.556 10.3945 169.776 10.4453 170.047 10.4453C170.284 10.1406 170.385 9.73438 170.352 9.22656C170.318 8.71875 170.318 8.17708 170.352 7.60156C170.419 7.29688 170.436 7.07682 170.402 6.94141C170.368 6.80599 170.335 6.67057 170.301 6.53516C170.233 6.02734 170.25 5.55339 170.352 5.11328C170.385 5.01172 170.419 4.91016 170.453 4.80859C170.487 4.67318 170.504 4.55469 170.504 4.45312C170.504 4.18229 170.453 3.94531 170.352 3.74219C170.352 3.53906 170.318 3.38672 170.25 3.28516C170.216 3.18359 170.165 3.09896 170.098 3.03125C170.064 2.96354 170.03 2.91276 169.996 2.87891C169.962 2.8112 169.962 2.70964 169.996 2.57422C170.233 2.33724 170.402 2.23568 170.504 2.26953C170.605 2.26953 170.741 2.26953 170.91 2.26953C171.181 2.20182 171.401 2.15104 171.57 2.11719C171.773 2.08333 172.027 2.10026 172.332 2.16797C172.637 2.10026 172.874 2.10026 173.043 2.16797C173.212 2.20182 173.398 2.23568 173.602 2.26953C173.737 2.23568 173.855 2.1849 173.957 2.11719C174.059 2.04948 174.16 1.9987 174.262 1.96484C174.363 2.03255 174.499 2.04948 174.668 2.01562C174.837 1.94792 174.956 1.98177 175.023 2.11719C175.193 2.35417 175.311 2.50651 175.379 2.57422C175.447 2.60807 175.48 2.65885 175.48 2.72656C175.548 2.9974 175.548 3.38672 175.48 3.89453C175.447 4.36849 175.413 4.79167 175.379 5.16406C175.413 5.33333 175.43 5.5026 175.43 5.67188C175.43 5.80729 175.43 5.95964 175.43 6.12891C175.43 6.23047 175.413 6.36589 175.379 6.53516C175.345 6.70443 175.328 6.82292 175.328 6.89062C175.43 7.19531 175.464 7.43229 175.43 7.60156C175.43 7.73698 175.447 7.83854 175.48 7.90625C175.514 8.14323 175.565 8.36328 175.633 8.56641C175.701 8.73568 175.616 8.9388 175.379 9.17578C175.447 9.37891 175.464 9.58203 175.43 9.78516C175.396 9.95443 175.362 10.1576 175.328 10.3945C175.328 10.4961 175.328 10.6146 175.328 10.75C175.362 10.8854 175.379 11.0039 175.379 11.1055C175.379 11.2747 175.345 11.4271 175.277 11.5625C175.21 11.6979 175.21 11.8503 175.277 12.0195C175.548 12.0534 175.785 12.0026 175.988 11.8672C176.191 11.7318 176.395 11.6302 176.598 11.5625C176.801 11.4948 177.004 11.4779 177.207 11.5117C177.444 11.5117 177.664 11.4271 177.867 11.2578C178.036 11.3932 178.223 11.3932 178.426 11.2578C178.629 11.1224 178.798 11.1562 178.934 11.3594C179.103 11.1562 179.391 11.0039 179.797 10.9023C180.203 10.8008 180.542 10.8008 180.812 10.9023C180.948 11.1732 181.049 11.3594 181.117 11.4609C181.185 11.5286 181.236 11.5964 181.27 11.6641C181.303 11.7318 181.303 11.8333 181.27 11.9688C181.236 12.0703 181.236 12.1888 181.27 12.3242C181.337 12.5951 181.354 12.7812 181.32 12.8828C181.32 12.9505 181.32 13.0182 181.32 13.0859C181.354 13.3229 181.405 13.543 181.473 13.7461C181.54 13.9492 181.591 14.1354 181.625 14.3047L181.676 14.6602ZM213.77 26.1367C213.736 26.6107 213.736 26.9323 213.77 27.1016C213.803 27.2708 213.77 27.457 213.668 27.6602C213.6 27.7956 213.465 27.8971 213.262 27.9648C213.092 28.0326 212.974 28.1341 212.906 28.2695C212.703 28.2018 212.483 28.1849 212.246 28.2188C212.009 28.2188 211.806 28.2526 211.637 28.3203C211.4 28.1172 211.061 28.0326 210.621 28.0664C210.215 28.1003 209.876 28.0156 209.605 27.8125C209.402 27.9141 209.216 27.9648 209.047 27.9648C208.573 28.0326 208.065 28.0156 207.523 27.9141C207.016 27.8125 206.491 27.7279 205.949 27.6602C205.577 27.6263 205.188 27.6094 204.781 27.6094C204.375 27.6094 204.02 27.6094 203.715 27.6094C203.376 27.6771 203.105 27.7109 202.902 27.7109C202.632 27.6771 202.378 27.6094 202.141 27.5078C201.938 27.4062 201.701 27.3555 201.43 27.3555C201.227 27.3216 201.007 27.3385 200.77 27.4062C200.566 27.4401 200.363 27.457 200.16 27.457C199.957 27.457 199.686 27.4232 199.348 27.3555C199.077 27.3893 198.891 27.4062 198.789 27.4062C198.688 27.3724 198.603 27.3555 198.535 27.3555C198.298 27.3555 198.061 27.3724 197.824 27.4062C197.621 27.4401 197.435 27.3555 197.266 27.1523C197.13 27.2539 197.012 27.3216 196.91 27.3555C196.809 27.3893 196.622 27.4062 196.352 27.4062C196.182 27.3724 196.047 27.3555 195.945 27.3555C195.878 27.3216 195.81 27.3047 195.742 27.3047C195.505 27.3724 195.302 27.3893 195.133 27.3555C194.997 27.3216 194.862 27.3724 194.727 27.5078C194.659 27.4401 194.54 27.4232 194.371 27.457C194.202 27.457 194.083 27.4232 194.016 27.3555C193.576 27.2878 193.22 27.2878 192.949 27.3555C192.678 27.4232 192.391 27.457 192.086 27.457C191.815 27.457 191.544 27.4232 191.273 27.3555C191.036 27.2878 190.732 27.2878 190.359 27.3555C190.19 27.6602 190.122 28.0495 190.156 28.5234C190.224 28.9635 190.359 29.319 190.562 29.5898C190.596 29.7591 190.579 29.8945 190.512 29.9961C190.478 30.0977 190.461 30.2331 190.461 30.4023C190.732 30.7747 190.952 31.0456 191.121 31.2148C191.324 31.3841 191.477 31.5534 191.578 31.7227C191.747 31.9935 191.951 32.2474 192.188 32.4844C192.424 32.7214 192.645 32.9922 192.848 33.2969C192.915 33.4661 193 33.6016 193.102 33.7031C193.237 33.8047 193.355 33.9401 193.457 34.1094C193.728 34.1771 193.948 34.2786 194.117 34.4141C194.32 34.5495 194.557 34.7018 194.828 34.8711C195.201 35.0742 195.454 35.2604 195.59 35.4297C195.759 35.5651 195.962 35.6836 196.199 35.7852C196.368 35.8529 196.504 35.8867 196.605 35.8867C196.707 35.8529 196.809 35.8529 196.91 35.8867C197.079 35.9544 197.266 36.0729 197.469 36.2422C197.672 36.4115 197.892 36.513 198.129 36.5469C198.501 36.513 198.772 36.513 198.941 36.5469C199.111 36.5469 199.263 36.5638 199.398 36.5977C199.839 36.6315 200.245 36.5299 200.617 36.293C200.786 36.293 200.922 36.293 201.023 36.293C201.125 36.293 201.26 36.276 201.43 36.2422C201.734 36.0391 201.954 35.9375 202.09 35.9375C202.259 35.9375 202.395 35.9036 202.496 35.8359C202.598 35.7344 202.682 35.6836 202.75 35.6836C202.852 35.6497 202.936 35.6159 203.004 35.582C203.207 35.5143 203.376 35.4297 203.512 35.3281C203.681 35.2266 203.85 35.1081 204.02 34.9727C204.257 34.8372 204.477 34.6849 204.68 34.5156C205.018 34.3125 205.306 34.0247 205.543 33.6523C205.814 33.2799 206.102 32.9583 206.406 32.6875C206.44 32.2812 206.508 31.9427 206.609 31.6719C206.711 31.401 206.846 31.1471 207.016 30.9102C207.016 30.5378 207.049 30.25 207.117 30.0469C207.219 29.8099 207.337 29.5898 207.473 29.3867C207.642 29.3529 207.794 29.319 207.93 29.2852C208.065 29.2513 208.234 29.2682 208.438 29.3359C208.539 29.4036 208.624 29.4714 208.691 29.5391C208.793 29.5729 208.928 29.6237 209.098 29.6914C209.199 29.7591 209.301 29.8099 209.402 29.8438C209.538 29.8438 209.724 29.8776 209.961 29.9453C210.198 30.0469 210.367 30.0977 210.469 30.0977C210.57 30.0977 210.672 30.1146 210.773 30.1484C211.044 30.2839 211.281 30.3346 211.484 30.3008C211.721 30.2669 211.924 30.2839 212.094 30.3516C212.466 30.6224 212.686 30.8255 212.754 30.9609C212.754 31.3672 212.635 31.7396 212.398 32.0781C212.229 32.4505 212.145 32.6875 212.145 32.7891C212.178 32.8568 212.178 32.9753 212.145 33.1445C212.111 33.2461 212.06 33.3307 211.992 33.3984C211.924 33.4661 211.874 33.5677 211.84 33.7031C211.772 33.9062 211.721 34.1094 211.688 34.3125C211.654 34.4818 211.586 34.668 211.484 34.8711C211.214 35.2096 210.993 35.4635 210.824 35.6328C210.689 35.7682 210.536 35.8698 210.367 35.9375C210.435 36.1068 210.401 36.2422 210.266 36.3438C210.13 36.4115 210.029 36.4792 209.961 36.5469C209.859 36.7839 209.707 36.9701 209.504 37.1055C209.335 37.2409 209.132 37.3932 208.895 37.5625C208.624 37.7995 208.336 38.0026 208.031 38.1719C207.76 38.3411 207.49 38.5104 207.219 38.6797C206.846 38.9844 206.592 39.2044 206.457 39.3398C206.322 39.4414 206.152 39.526 205.949 39.5938C205.78 39.6615 205.645 39.7292 205.543 39.7969C205.475 39.8307 205.424 39.8477 205.391 39.8477C205.221 39.9154 205.035 39.9492 204.832 39.9492C204.629 39.9492 204.426 39.9831 204.223 40.0508C203.85 40.1862 203.529 40.2708 203.258 40.3047C202.987 40.3724 202.716 40.4401 202.445 40.5078C202.276 40.5755 202.124 40.6263 201.988 40.6602C201.853 40.694 201.65 40.694 201.379 40.6602C201.04 40.5924 200.786 40.6094 200.617 40.7109C200.448 40.8125 200.279 40.7956 200.109 40.6602C199.737 40.7279 199.415 40.7956 199.145 40.8633C198.908 40.931 198.688 40.9479 198.484 40.9141C198.383 40.9141 198.281 40.8971 198.18 40.8633C198.078 40.8294 197.977 40.7956 197.875 40.7617C197.232 40.6602 196.707 40.5924 196.301 40.5586C195.928 40.5247 195.59 40.457 195.285 40.3555C195.184 40.3216 195.082 40.3047 194.98 40.3047C194.879 40.3047 194.794 40.237 194.727 40.1016C194.388 40.1693 194.066 40.1354 193.762 40C193.491 39.8307 193.271 39.6615 193.102 39.4922C193 39.4922 192.898 39.4753 192.797 39.4414C192.729 39.4076 192.645 39.3737 192.543 39.3398C192.306 39.2383 192.069 39.1367 191.832 39.0352C191.595 38.8997 191.409 38.6966 191.273 38.4258C191.003 38.4258 190.799 38.3581 190.664 38.2227C190.562 38.0872 190.427 37.9518 190.258 37.8164C189.987 37.8164 189.733 37.7487 189.496 37.6133C189.293 37.444 189.124 37.2578 188.988 37.0547C188.717 36.7161 188.464 36.4453 188.227 36.2422C187.854 35.8698 187.566 35.5651 187.363 35.3281C187.16 35.0573 186.906 34.8711 186.602 34.7695C186.534 34.5664 186.432 34.3971 186.297 34.2617C186.161 34.1263 186.026 33.974 185.891 33.8047C185.721 33.4661 185.603 33.2461 185.535 33.1445C185.467 33.043 185.4 32.9583 185.332 32.8906C185.264 32.6198 185.197 32.3659 185.129 32.1289C185.095 31.8581 185.044 31.5872 184.977 31.3164C184.875 30.944 184.824 30.6732 184.824 30.5039C184.824 30.3346 184.807 30.1654 184.773 29.9961C184.74 29.8945 184.689 29.793 184.621 29.6914C184.587 29.5898 184.553 29.4883 184.52 29.3867C184.486 29.2174 184.469 29.0482 184.469 28.8789C184.503 28.7096 184.503 28.5234 184.469 28.3203C184.435 28.151 184.401 27.9987 184.367 27.8633C184.333 27.694 184.316 27.5247 184.316 27.3555C184.316 27.1185 184.333 26.8815 184.367 26.6445C184.401 26.3737 184.418 26.1029 184.418 25.832C184.418 25.7643 184.401 25.6797 184.367 25.5781C184.367 25.4427 184.367 25.3411 184.367 25.2734C184.401 25.1042 184.452 24.9349 184.52 24.7656C184.621 24.5625 184.689 24.3763 184.723 24.207C184.655 23.9023 184.638 23.6823 184.672 23.5469C184.74 23.4115 184.74 23.3099 184.672 23.2422C184.74 23.1745 184.79 23.0898 184.824 22.9883C184.858 22.8529 184.892 22.7513 184.926 22.6836C184.96 22.582 184.977 22.4635 184.977 22.3281C184.977 22.1927 185.01 22.0404 185.078 21.8711C185.247 21.6003 185.349 21.4479 185.383 21.4141C185.451 21.3464 185.501 21.2956 185.535 21.2617C185.569 21.0247 185.603 20.8724 185.637 20.8047C185.671 20.7031 185.721 20.6185 185.789 20.5508C185.958 20.2122 186.06 20.0091 186.094 19.9414C186.161 19.8737 186.212 19.806 186.246 19.7383C186.28 19.4674 186.314 19.3151 186.348 19.2812C186.382 19.2474 186.415 19.1966 186.449 19.1289C186.517 18.9258 186.551 18.7565 186.551 18.6211C186.585 18.4518 186.635 18.2826 186.703 18.1133C186.771 17.944 186.855 17.7747 186.957 17.6055C187.059 17.4023 187.194 17.2331 187.363 17.0977C187.533 16.6914 187.685 16.3529 187.82 16.082C187.956 15.7773 188.091 15.4896 188.227 15.2188C188.531 14.9818 188.785 14.7109 188.988 14.4062C189.225 14.1016 189.496 13.8307 189.801 13.5938C189.868 13.526 189.936 13.4922 190.004 13.4922C190.105 13.4583 190.224 13.4076 190.359 13.3398C190.732 13.069 191.003 12.8659 191.172 12.7305C191.341 12.5612 191.544 12.4258 191.781 12.3242C191.984 12.2565 192.289 12.2227 192.695 12.2227C193.135 12.1888 193.44 12.0534 193.609 11.8164C193.812 11.8164 194.016 11.7826 194.219 11.7148C194.422 11.6133 194.625 11.5117 194.828 11.4102C194.964 11.3424 195.116 11.2747 195.285 11.207C195.454 11.1055 195.691 11.0716 195.996 11.1055C196.233 11.1393 196.453 11.1562 196.656 11.1562C196.893 11.1224 197.147 11.0716 197.418 11.0039C197.553 10.9701 197.706 10.9362 197.875 10.9023C198.044 10.8685 198.23 10.8516 198.434 10.8516C198.941 10.9193 199.331 10.9531 199.602 10.9531C199.906 10.9531 200.245 10.9701 200.617 11.0039C200.786 11.0039 200.956 10.987 201.125 10.9531C201.328 10.8854 201.531 10.8516 201.734 10.8516C201.904 10.8854 202.056 10.9023 202.191 10.9023C202.361 10.9023 202.53 10.9193 202.699 10.9531C202.936 11.0208 203.072 11.0547 203.105 11.0547C203.173 11.0547 203.224 11.0547 203.258 11.0547C203.427 11.0885 203.562 11.1562 203.664 11.2578C203.799 11.3255 203.952 11.3932 204.121 11.4609C204.189 11.5286 204.273 11.5625 204.375 11.5625C204.51 11.5625 204.612 11.5964 204.68 11.6641C204.815 11.6979 205.018 11.7826 205.289 11.918C205.526 11.9857 205.746 12.0534 205.949 12.1211C206.152 12.1888 206.288 12.3411 206.355 12.5781C206.728 12.6797 206.999 12.8151 207.168 12.9844C207.371 13.1536 207.557 13.2891 207.727 13.3906C207.862 13.4922 207.997 13.6445 208.133 13.8477C208.268 14.0169 208.421 14.1523 208.59 14.2539C208.624 14.3555 208.658 14.4401 208.691 14.5078C208.759 14.5755 208.81 14.6771 208.844 14.8125C209.115 14.9818 209.352 15.2018 209.555 15.4727C209.758 15.7096 210.046 15.8958 210.418 16.0312C210.52 16.2682 210.638 16.4714 210.773 16.6406C210.909 16.8099 210.993 17.0469 211.027 17.3516C211.095 17.4531 211.163 17.5716 211.23 17.707C211.332 17.8086 211.434 17.944 211.535 18.1133C211.569 18.181 211.62 18.2656 211.688 18.3672C211.789 18.4688 211.857 18.5703 211.891 18.6719C212.06 19.0443 212.246 19.3997 212.449 19.7383C212.517 19.8398 212.602 19.9583 212.703 20.0938C212.839 20.2292 212.94 20.3815 213.008 20.5508C213.042 20.6862 213.059 20.8216 213.059 20.957C213.059 21.0924 213.076 21.2279 213.109 21.3633C213.177 21.5326 213.228 21.6849 213.262 21.8203C213.296 21.9219 213.329 22.0065 213.363 22.0742C213.431 22.3451 213.448 22.6159 213.414 22.8867C213.38 23.1237 213.38 23.3776 213.414 23.6484C213.448 23.8516 213.465 24.0716 213.465 24.3086C213.499 24.5117 213.533 24.7148 213.566 24.918C213.566 25.1888 213.583 25.4089 213.617 25.5781L213.77 26.1367ZM206.508 22.0742C206.576 22.0065 206.576 21.888 206.508 21.7188C206.474 21.5495 206.389 21.431 206.254 21.3633C206.186 21.1263 206.085 20.9909 205.949 20.957C205.848 20.8893 205.848 20.7878 205.949 20.6523C205.848 20.5508 205.712 20.4661 205.543 20.3984C205.374 20.3307 205.306 20.1953 205.34 19.9922C205.171 20.026 205.052 19.9922 204.984 19.8906C204.951 19.7552 204.9 19.6706 204.832 19.6367C204.595 19.4674 204.443 19.2982 204.375 19.1289C204.307 18.9596 204.206 18.8242 204.07 18.7227C203.969 18.6549 203.85 18.6549 203.715 18.7227C203.613 18.7565 203.562 18.6719 203.562 18.4688C203.021 18.5026 202.598 18.418 202.293 18.2148C202.022 17.9779 201.751 17.724 201.48 17.4531C201.176 17.5208 200.837 17.5378 200.465 17.5039C200.092 17.4701 199.737 17.4701 199.398 17.5039C199.128 17.3346 198.874 17.2669 198.637 17.3008C198.434 17.3008 198.18 17.25 197.875 17.1484C197.74 17.1146 197.655 17.0469 197.621 16.9453C197.621 16.8099 197.536 16.7422 197.367 16.7422C197.13 16.8438 196.893 16.8438 196.656 16.7422C196.453 16.6406 196.216 16.5729 195.945 16.5391C195.674 16.7083 195.387 16.8268 195.082 16.8945C194.777 16.9284 194.473 16.9961 194.168 17.0977C193.999 17.1654 193.812 17.3346 193.609 17.6055C193.406 17.8424 193.254 18.0117 193.152 18.1133C192.915 18.3841 192.678 18.6549 192.441 18.9258C192.204 19.1966 191.984 19.4674 191.781 19.7383C191.815 19.9414 191.798 20.1107 191.73 20.2461C191.663 20.3477 191.646 20.4831 191.68 20.6523C191.443 20.8216 191.273 21.0924 191.172 21.4648C191.104 21.8034 191.036 22.1419 190.969 22.4805C191.206 22.5143 191.477 22.5143 191.781 22.4805C192.086 22.4466 192.408 22.4128 192.746 22.3789C192.848 22.3451 192.949 22.3281 193.051 22.3281C193.186 22.3281 193.305 22.3281 193.406 22.3281C193.914 22.2266 194.354 22.1927 194.727 22.2266C195.099 22.2266 195.438 22.2096 195.742 22.1758C196.081 22.1758 196.402 22.1589 196.707 22.125C197.046 22.0573 197.35 22.0911 197.621 22.2266C197.993 22.0573 198.417 21.9896 198.891 22.0234C199.398 22.0573 199.805 22.0911 200.109 22.125C200.38 22.125 200.533 22.1081 200.566 22.0742C200.6 22.0404 200.634 22.0404 200.668 22.0742C201.65 22.0065 202.615 22.0404 203.562 22.1758C204.544 22.2773 205.526 22.2435 206.508 22.0742Z" fill="#6F0FFF"/>
</svg>
