<svg width="309" height="206" viewBox="0 0 309 206" fill="none" xmlns="http://www.w3.org/2000/svg">
<path fill-rule="evenodd" clip-rule="evenodd" d="M0 103H103C103 103.334 103.002 103.667 103.005 104C103.541 160.425 149.448 206 206 206C262.552 206 308.459 160.425 308.995 104C308.998 103.667 309 103.334 309 103H308H206C206 46.1147 159.885 0 103 0C46.1147 0 0 46.1147 0 103ZM206 205C261.999 205 307.459 159.872 307.995 104H307.991H307.65H307.307H306.963H306.616H306.267H305.916H305.563H305.208H304.851H304.493H304.132H303.769H303.404H303.037H302.669H302.298H301.926H301.552H301.175H300.797H300.417H300.036H299.652H299.267H298.879H298.49H298.099H297.707H297.312H296.916H296.518H296.118H295.717H295.314H294.909H294.502H294.094H293.684H293.272H292.859H292.444H292.027H291.609H291.189H290.768H290.345H289.92H289.494H289.067H288.637H288.206H287.774H287.34H286.905H286.468H286.03H285.59H285.149H284.706H284.262H283.816H283.369H282.921H282.471H282.02H281.567H281.113H280.658H280.201H279.743H279.284H278.823H278.361H277.898H277.433H276.968H276.501H276.032H275.563H275.092H274.62H274.147H273.673H273.197H272.72H272.242H271.763H271.283H270.802H270.319H269.836H269.351H268.866H268.379H267.891H267.402H266.912H266.421H265.929H265.436H264.942H264.447H263.951H263.454H262.956H262.457H261.958H261.457H260.955H260.453H259.949H259.445H258.94H258.434H257.927H257.419H256.911H256.401H255.891H255.38H254.869H254.356H253.843H253.329H252.814H252.299H251.782H251.265H250.748H250.229H249.71H249.191H248.671H248.15H247.628H247.106H246.583H246.06H245.536H245.011H244.486H243.96H243.434H242.907H242.38H241.852H241.324H240.795H240.265H239.736H239.205H238.675H238.144H237.612H237.08H236.548H236.015H235.482H234.948H234.414H233.88H233.346H232.811H232.275H231.74H231.204H230.668H230.131H229.595H229.058H228.521H227.983H227.446H226.908H226.37H225.831H225.293H224.754H224.216H223.677H223.138H222.599H222.059H221.52H220.98H220.441H219.901H219.362H218.822H218.282H217.742H217.202H216.663H216.123H215.583H215.043H214.503H213.964H213.424H212.885H212.345H211.806H211.266H210.727H210.188H209.649H209.11H208.572H208.033H207.495H206.957H206.419H205.881H205.344H204.806H204.269H203.733H203.196H202.66H202.124H201.588H201.053H200.518H199.983H199.449H198.915H198.381H197.848H197.315H196.783H196.251H195.719H195.188H194.657H194.126H193.596H193.067H192.538H192.009H191.482H190.954H190.427H189.901H189.375H188.849H188.325H187.8H187.277H186.754H186.231H185.71H185.189H184.668H184.148H183.629H183.11H182.593H182.075H181.559H181.043H180.528H180.014H179.5H178.988H178.476H177.965H177.454H176.944H176.436H175.928H175.421H174.914H174.409H173.904H173.401H172.898H172.396H171.895H171.395H170.896H170.397H169.9H169.404H168.909H168.414H167.921H167.429H166.937H166.447H165.958H165.47H164.982H164.496H164.011H163.528H163.045H162.563H162.083H161.603H161.125H160.648H160.172H159.697H159.224H158.751H158.28H157.81H157.341H156.874H156.408H155.943H155.479H155.017H154.556H154.096H153.638H153.181H152.725H152.27H151.817H151.366H150.915H150.467H150.019H149.573H149.128H148.685H148.243H147.803H147.364H146.927H146.491H146.057H145.624H145.193H144.763H144.335H143.908H143.483H143.059H142.638H142.217H141.799H141.381H140.966H140.552H140.14H139.73H139.321H138.914H138.508H138.104H137.702H137.302H136.904H136.507H136.112H135.719H135.327H134.937H134.55H134.163H133.779H133.397H133.016H132.638H132.261H131.886H131.513H131.142H130.773H130.405H130.04H129.676H129.315H128.956H128.598H128.243H127.889H127.537H127.188H126.841H126.495H126.152H125.81H125.471H125.134H124.799H124.466H124.135H123.807H123.48H123.156H122.833H122.513H122.196H121.88H121.566H121.255H120.946H120.639H120.335H120.032H119.732H119.435H119.139H118.846H118.555H118.267H117.98H117.697H117.415H117.136H116.859H116.585H116.313H116.043H115.776H115.512H115.249H114.99H114.732H114.477H114.225H113.975H113.728H113.483H113.241H113.001H112.764H112.529H112.297H112.067H111.84H111.616H111.394H111.175H110.959H110.745H110.534H110.325H110.12H109.916H109.716H109.518H109.323H109.131H108.942H108.755H108.571H108.39H108.211H108.036H107.863H107.693H107.526H107.361H107.2H107.041H106.886H106.733H106.583H106.436H106.292H106.151H106.012H105.877H105.745H105.615H105.489H105.365H105.245H105.128H105.013H104.902H104.794H104.689H104.586H104.487H104.391H104.298H104.209H104.122H104.038H104.005C104.541 159.872 150.001 205 206 205Z" fill="#6F0FFF"/>
</svg>
